/* XPM */
static char *_d945ac5d2c34cd6c0c5d08c8f9f4be8Gycf5UJTaQ7bbWaM[] = {
/* columns rows colors chars-per-pixel */
"64 64 256 2 ",
"   c black",
".  c #0000A8",
"X  c #00A800",
"o  c #00A8A8",
"O  c #A80000",
"+  c #A800A8",
"@  c #A85400",
"#  c gray66",
"$  c gray33",
"%  c #5454FC",
"&  c #54FC54",
"*  c #54FCFC",
"=  c #FC5454",
"-  c #FC54FC",
";  c #FCFC54",
":  c gray99",
">  c #ECECEC",
",  c gainsboro",
"<  c #D0D0D0",
"1  c #C0C0C0",
"2  c #B4B4B4",
"3  c gray66",
"4  c #989898",
"5  c gray55",
"6  c #7C7C7C",
"7  c gray44",
"8  c #646464",
"9  c gray33",
"0  c #484848",
"q  c gray22",
"w  c #2C2C2C",
"e  c #202020",
"r  c #FC0000",
"t  c #EC0000",
"y  c #E00000",
"u  c #D40000",
"i  c #C80000",
"p  c #BC0000",
"a  c #B00000",
"s  c #A40000",
"d  c #980000",
"f  c #880000",
"g  c #7C0000",
"h  c #700000",
"j  c #640000",
"k  c #580000",
"l  c #4C0000",
"z  c #400000",
"x  c #FCD8D8",
"c  c #FCB8B8",
"v  c #FC9C9C",
"b  c #FC7C7C",
"n  c #FC5C5C",
"m  c #FC4040",
"M  c #FC2020",
"N  c #FC0000",
"B  c #FCA85C",
"V  c #FC9840",
"C  c #FC8820",
"Z  c #FC7800",
"A  c #E46C00",
"S  c #CC6000",
"D  c #B45400",
"F  c #9C4C00",
"G  c #FCFCD8",
"H  c #FCFCB8",
"J  c #FCFC9C",
"K  c #FCFC7C",
"L  c #FCF85C",
"P  c #FCF440",
"I  c #FCF420",
"U  c #FCF400",
"Y  c #E4D800",
"T  c #CCC400",
"R  c #B4AC00",
"E  c #9C9C00",
"W  c #848400",
"Q  c #706C00",
"!  c #585400",
"~  c #404000",
"^  c #D0FC5C",
"/  c #C4FC40",
"(  c #B4FC20",
")  c #A0FC00",
"_  c #90E400",
"`  c #80CC00",
"'  c #74B400",
"]  c #609C00",
"[  c #D8FCD8",
"{  c #BCFCB8",
"}  c #9CFC9C",
"|  c #80FC7C",
" . c #60FC5C",
".. c #40FC40",
"X. c #20FC20",
"o. c #00FC00",
"O. c #00FC00",
"+. c #00EC00",
"@. c #00E000",
"#. c #00D400",
"$. c #04C800",
"%. c #04BC00",
"&. c #04B000",
"*. c #04A400",
"=. c #049800",
"-. c #048800",
";. c #047C00",
":. c #047000",
">. c #046400",
",. c #045800",
"<. c #044C00",
"1. c #044000",
"2. c #D8FCFC",
"3. c #B8FCFC",
"4. c #9CFCFC",
"5. c #7CFCF8",
"6. c #5CFCFC",
"7. c #40FCFC",
"8. c #20FCFC",
"9. c #00FCFC",
"0. c #00E4E4",
"q. c #00CCCC",
"w. c #00B4B4",
"e. c #009C9C",
"r. c #008484",
"t. c #007070",
"y. c #005858",
"u. c #004040",
"i. c #5CBCFC",
"p. c #40B0FC",
"a. c #20A8FC",
"s. c #009CFC",
"d. c #008CE4",
"f. c #007CCC",
"g. c #006CB4",
"h. c #005C9C",
"j. c #D8D8FC",
"k. c #B8BCFC",
"l. c #9C9CFC",
"z. c #7C80FC",
"x. c #5C60FC",
"c. c #4040FC",
"v. c #2024FC",
"b. c #0004FC",
"n. c #0000FC",
"m. c #0000EC",
"M. c #0000E0",
"N. c #0000D4",
"B. c #0000C8",
"V. c #0000BC",
"C. c #0000B0",
"Z. c #0000A4",
"A. c #000098",
"S. c #000088",
"D. c #00007C",
"F. c #000070",
"G. c #000064",
"H. c #000058",
"J. c #00004C",
"K. c #000040",
"L. c #282828",
"P. c #FCE034",
"I. c #FCD424",
"U. c #FCCC18",
"Y. c #FCC008",
"T. c #FCB400",
"R. c #B420FC",
"E. c #A800FC",
"W. c #9800E4",
"Q. c #8000CC",
"!. c #7400B4",
"~. c #60009C",
"^. c #500084",
"/. c #440070",
"(. c #340058",
"). c #280040",
"_. c #FCD8FC",
"`. c #FCB8FC",
"'. c #FC9CFC",
"]. c #FC7CFC",
"[. c #FC5CFC",
"{. c #FC40FC",
"}. c #FC20FC",
"|. c #FC00FC",
" X c #E000E4",
".X c #C800CC",
"XX c #B400B4",
"oX c #9C009C",
"OX c #840084",
"+X c #6C0070",
"@X c #580058",
"#X c #400040",
"$X c #FCE8DC",
"%X c #FCE0D0",
"&X c #FCD8C4",
"*X c #FCD4BC",
"=X c #FCCCB0",
"-X c #FCC4A4",
";X c #FCBC9C",
":X c #FCB890",
">X c #FCB080",
",X c #FCA470",
"<X c #FC9C60",
"1X c #F0945C",
"2X c #E88C58",
"3X c #DC8854",
"4X c #D08050",
"5X c #C87C4C",
"6X c #BC7848",
"7X c #B47044",
"8X c #A86840",
"9X c #A0643C",
"0X c #9C6038",
"qX c #905C34",
"wX c #885830",
"eX c #80502C",
"rX c #744C28",
"tX c #6C4824",
"yX c #5C4020",
"uX c #543C1C",
"iX c #483818",
"pX c #403018",
"aX c #382C14",
"sX c #28200C",
"dX c #600064",
"fX c #006464",
"gX c #006060",
"hX c #00001C",
"jX c #00002C",
"kX c #302410",
"lX c #480048",
"zX c #500050",
"xX c #000034",
"cX c gray11",
"vX c #4C4C4C",
"bX c gray36",
"nX c gray25",
"mX c gray19",
"MX c #343434",
"NX c #D8F4F4",
"BX c #B8E8E8",
"VX c #9CDCDC",
"CX c #74C8C8",
"ZX c #48C0C0",
"AX c #20B4B4",
"SX c #20B0B0",
"DX c #00A4A4",
"FX c #009898",
"GX c #008C8C",
"HX c #008484",
"JX c #007C7C",
"KX c #007878",
"LX c #007474",
"PX c #007070",
"IX c #006C6C",
"UX c #980088",
/* pixels */
"UXUXUXUXUXUXUXUXUXUXUXUXUXUXUXUXUXUXUXUXUXUXUXUXUXUXnX0 8 7 7 8 8 8 $ $ $ 0 nXUXUXUXUXUXUXUXUXUXUXUXUXUXUXUXUXUXUXUXUXUXUXUXUXUX",
"UXUXUXUXUXUXUXUXUXUXUXUXUXUXUXUXUXUXUXUXUXUXUXUX$ nX0 7 7 8 8 8 8 8 8 8 $ $ 0 0 0 UXUXUXUXUXUXUXUXUXUXUXUXUXUXUXUXUXUXUXUXUXUXUX",
"UXUXUXUXUXUXUXUXUXUXUXUXUXUXUXUXUXUXUXUXUXUXUXUX$ 6 # # 6 6 7 7 7 7 7 7 7 $ $ $ $ UXUXUXUXUXUXUXUXUXUXUXUXUXUXUXUXUXUXUXUXUXUXUX",
"UXUXUXUXUXUXUXUXUXUXUXUXUXUXUXUXUXUXUXUXUXUXUX$ 7 $ $ $ $ # : : : : : # $ $ q q $ q UXUXUXUXUXUXUXUXUXUXUXUXUXUXUXUXUXUXUXUXUXUX",
"UXUXUXUXUXUXUXUXUXUXUXUXUXUXUXUXUXUXUXUXUXUXUXq   $           # # #             e q UXUXUXUXUXUXUXUXUXUXUXUXUXUXUXUXUXUXUXUXUXUX",
"UXUXUXUXUXUXUXUXUXUXUXUXUXUXUXUXUXUXUXUXUXUXUXq $ 7 1 1 # # 6 6 6 $ $ $ q q q q   q UXUXUXUXUXUXUXUXUXUXUXUXUXUXUXUXUXUXUXUXUXUX",
"UXUXUXUXUXUXUXUXUXUXUXUXUXUXUXUXUXUXUXUXUXUXUXUXq q $ $ $ $ $ $ $ 0 0 0 q q q q q UXUXUXUXUXUXUXUXUXUXUXUXUXUXUXUXUXUXUXUXUXUXUX",
"UXUXUXUXUXUXUXUXUXUXUXUXUXUXUXUXUXUXUXUXUXUXUXUXUXC ,X7XuXeX5X,X,X,X5XeXuX7X1XC UXUXUXUXUXUXUXUXUXUXUXUXUXUXUXUXUXUXUXUXUXUXUXUX",
"UXUXUXUXUXUXUXUXUXUXUXUXUXUXUXUXUXUXUXUXUXUXUXUXUXC ,X;X1 F.$ yXwXyX$ F.4 4X1XC UXUXUXUXUXUXUXUXUXUXUXUXUXUXUXUXUXUXUXUXUXUXUXUX",
"UXUXUXUXUXUXUXUXUXUXUXUXUXUXUXUXUXUXUXUXUXUXUXUX7XV ,X:X>X>X,X,X<X6X2X>X>X>X1XV wXUXUXUXUXUXUXUXUXUXUXUXUXUXUXUXUXUXUXUXUXUXUXUX",
"UXUXUXUXUXUXUXUXUXUXUXUXUXUXUXUXUXUXUXUXUXUXUXUXeXB ,X:X-X-X>X4X4X9X,X;X;X,X1XB tXUXUXUXUXUXUXUXUXUXUXUXUXUXUXUXUXUXUXUXUXUXUXUX",
"UXUXUXUXUXUXUXUXUXUXUXUXUXUXUXUXUXUXUXUXUXUXUXUX7X3X<X2X<X7X1X,X1X,X1X7X1X3X4X7XwXUXUXUXUXUXUXUXUXUXUXUXUXUXUXUXUXUXUXUXUXUXUXUX",
"UXUXUXUXUXUXUXUXUXUXUXUXUXUXUXUXUXUXUXUXUXUXUXUXUX3X<X2X<X7X1 < , < 1 7X1X7X4X7XUXUXUXUXUXUXUXUXUXUXUXUXUXUXUXUXUXUXUXUXUXUXUXUX",
"UXUXUXUXUXUXUXUXUXUXUXUXUXUXUXUXUXUXUXUXUXUXUXUX  3X<X2X<X5X1 < , < 1 5X1X7X4X7X  UXUXUXUXUXUXUXUXUXUXUXUXUXUXUXUXUXUXUXUXUXUXUX",
"UXUXUXUXUXUXUXUXUXUXUXUXUXUXUXUXUXUXUXUXUXUXUX    6X<X,X<X,X<X,X,X,X<X,X1X3X7X9X    UXUXUXUXUXUXUXUXUXUXUXUXUXUXUXUXUXUXUXUXUXUX",
"UXUXUXUXUXUXUXUXUXUXUXUXUXUXUXUXUXUX,.:.:.:.1.      3X3X,X,X,X2X5X2X,X,X1X7XeX      ,.,.;.-.-.UXUXUXUXUXUXUXUXUXUXUXUXUXUXUXUXUX",
"UXUXUXUXUXUXUXUXUXUXUXUXUXUX:.:.:.6 6 :.:.1.1.      7X0X7X8X0XqXqXqXeXeXeXtXuX      ,.5 5 -.-.-.-.-.UXUXUXUXUXUXUXUXUXUXUXUXUXUX",
"UXUXUXUXUXUXUXUXUXUXUXUX,.:.:.:.$ 6 5 # :.,.,.,.1.1.<.0X5X7X7X5X7X7X8XeXeX<.tX    ,.5 # # 1 =.=.=.=.-.-.vXUXUXUXUXUXUXUXUXUXUXUX",
"UXUXUXUXUXUXUXUXUXUX,.,.>.:.:.:.q $ 7 6 ;.:.,.,.,.<.1.<.<.8X8X2X4X6X8X<.>.:.1.,.,.:.$ 7 7 6 -.=.=.=.=.=.-.-.vXUXUXUXUXUXUXUXUXUX",
"UXUXUXUXUXUXUXUXUX,.,.>.:.:.:.:.:.;.;.;.;.;.;.:.:.>.>.1.<.<.<.<.,.>.>.:.>.,.>.:.:.;.;.;.-.-.-.-.=.=.=.=.=.-.-.vXUXUXUXUXUXUXUXUX",
"UXUXUXUXUXUXUXUX,.,.>.>.:.:.:.:.:.;.;.;.;.;.;.;.;.;.;.>.1.1.1.1.1.1.,.>.;.;.;.;.;.;.;.;.;.;.-.-.-.=.=.=.=.=.-.-.UXUXUXUXUXUXUXUX",
"UXUXUXUXUXUX1.,.>.:.:.-.-.-.:.:.:.:.;.;.;.;.;.;.;.;.;.;.-.>.>.<.;.;.;.;.;.;.;.;.;.;.;.;.;.;.;.;.-.-.*.*.*.&.%.&.*.*.UXUXUXUXUXUX",
"UXUXUXUXUXUX1.1.<.<.,.,.1.1.1.1.>.:.:.;.;.;.;.;.;.;.;.;.-.>.>.<.;.;.;.;.;.;.;.;.;.;.;.;.;.;.>.1.1.1.1.1.,.,.,.>.:.:.UXUXUXUXUXUX",
"UXUXUXUXUXUXUXUXe e         1.1.<.>.>.>.:.:.:.:.:.:.:.-.;.>.<.>.:.:.:.:.:.:.:.:.:.:.:.;.>.<.<.1.                    UXUXUXUXUXUX",
"UXUXUXUXUXUXUXG.K.e e           1.<.>.>.>.:.:.:.:.:.:.-.:.>.<.>.:.:.:.:.:.:.:.:.:.:.>.<.<.1.1.      G.F.D.D.S.S.D.F.UXUXUXUXUXUX",
"UXUXUXUXUXUXUXK.D.e e e       K.  1.<.>.>.>.:.:.:.:.:.-.:.>.<.>.:.:.:.:.:.:.:.:.:.>.<.<.1.        H.K.K.K.K.K.K.K.K.G.UXUXUXUXUX",
"UXUXUXUXUXUXUXF.K.D.D.G.G.J.K.      1.<.>.>.:.:.:.:.:.-.:.>.<.>.:.:.:.:.:.:.:.:.>.<.<.          J.K.F.S.S.D.F.G.G.H.K.UXUXUXUXUX",
"UXUXUXUXUXUXUXF.G.K.K.K.      K.      1.1.1.1.1.1.1.1.1.1.    1.1.1.1.1.1.1.1.1.1.1.  e         K.H.D.S.S.D.F.G.G.H.8 UXUXUXUXUX",
"UXUXUXUXUXUXUXUXG.G.H.K.K.K.K.K.                                                    e e         J.G.D.S.S.D.F.G.G.H.0 UXUXUXUXUX",
"UXUXUXUXUXUXUXUXF.G.H.K.K.K.K.K.    e e e e e e e e e e e e e e e e e e e e e e e e e           J.G.D.S.S.D.D.F.G.G.H.UXUXUXUXUX",
"UXUXUXUXUXUXUXUXUXG.H.J.K.K.K.K.    e e w MXMXMXMXMXq nXw w mXMXMXq q q q q nXw e e             J.G.F.D.S.S.D.G.G.H.8 UXUXUXUXUX",
"UXUXUXUXUXUXUXUXUX                    e e w w w w w w MXw w e w w w w w w w MXw e e e           J.G.F.D.S.S.D.G.G.H.0 UXUXUXUXUX",
"UXUXUXUXUXUXUXUXUXUXF.G.J.K.K.K.              e e e e w w w e e e e e e e e w e e e e e       IXGXGXGXt.u.e e e H.H.H.UXUXUXUXUX",
"UXUXUXUXUXUXUXUXUXK.K.K.      K.K.    e e e e w w w w w w w w w w w w w e e e e e e e e cX  IXGXt.q.DXr.t.u.F.F.e e H.UXUXUXUXUX",
"UXUXUXUXUXUXUXUXUXt.JXGXLXIXu.F.J.  e e e w w MXMXq q nXnX0 0 0 0 0 0 0 nXq q w e e e cXcXu.KXGXq.JXt.y.t.y.u.e H.K.K.UXUXUXUXUX",
"UXUXUXUXUXUXUXUXt.r.r.r.JXLXy.u.w                 e w q nXnXnX0 0 nXnXw e e e e e e e     u.GXGXq.JXt.u.t.y.u.H.e K.K.UXUXUXUXUX",
"UXUXUXUXUXUXUXt.r.r.r.r.IXIXy.y.u.mX  bX4 1 1 1 # # #   e w w MXMXw     e e             u.IXGXq.DXJXy.u.y.y.u.H.H.e K.UXUXUXUXUX",
"UXUXUXUXUXUXUXt.r.r.r.IXIXy.y.u.u.mX4 1 1 4 4 bXbX0 0 4 4 7 mX          e 0 bXbX0 0 0 0 u.LXGXq.JXJXu.y.y.y.u.K.K.e UXUXUXUXUXUX",
"UXUXUXUXUXUXUXt.t.t.t.r.y.y.u.u.u.# 1 7 7 # # # # 4 4 0 0 bX0 mX    e 0 bXbXw w w w w w u.GXGXq.JXt.u.y.y.u.u.K.K.K.UXUXUXUXUXUX",
"UXUXUXUXUXUXUXt.t.t.r.IXu.u.u.u.4 4 7 4 # # # # # 4 4 7 $ mXbX0   e 0 w w 0 bX$ vX0 0 0 y.GXq.DXJXy.u.y.y.u.K.K.K.UXUXUXUXUXUXUX",
"UXUXUXUXUXUXUXUXt.t.r.t.IXu.u.u.7 7 4 4 # # # # # 4 4 7 bX$ mXbX  w w 0 8 7 bX$ vX0 0 u.t.GXq.JXJXu.y.y.y.u.K.K.K.UXUXUXUXUXUXUX",
"UXUXUXUXUXUXUXUXt.t.y.r.IXy.u.u.u.7 4 4 # # # # # 4 4 7 bX$ w w   0 vXbX8 7 bX$ vX0 0 u.KXw w w w u.y.y.u.u.K.K.UXUXUXUXUXUXUXUX",
"UXUXUXUXUXUXUXUXt.t.y.r.IXIXu.u.u.7 4 4 # # # # # 4 4 7 bX$ q w q 0 vXbX8 7 bX$ vX0 0 u.w u.e u.u.w w y.u.u.K.K.UXUXUXUXUXUXUXUX",
"UXUXUXUXUXUXUXUXUXt.y.y.r.y.y.u.w 7 4 4 # # # # # 4 4 7 bX$ q   e e vXbX8 7 bX$ vX0 0 w u.t.q.e.t.u.u.w u.K.K.K.UXUXUXUXUXUXUXUX",
"UXUXUXUXUXUXUXUXUXt.y.y.y.y.y.w w 7 4 4 # # # # # 4 4 7 bX$ q     e vXbX8 7 bX$ vX0 0 w y.e.q.e.y.u.y.w w K.K.UXUXUXUXUXUXUXUXUX",
"UXUXUXUXUXUXUXUXUXUXw w w w w u.w 7 4 4 # # # # # 4 4 7 bX$ q     0 vXbX8 7 bX$ vX0 0 u.y.q.e.r.u.y.t.u.w UXUXUXUXUXUXUXUXUXUXUX",
"UXUXUXUXUXUXUXUXUXUXUXy.y.u.u.u.w 7 4 4 # # # # # 4 4 7 bX$ q   q 0 vXbX8 8 bX$ vX0 0 u.t.q.e.t.u.y.t.u.w UXUXUXUXUXUXUXUXUXUXUX",
"UXUXUXUXUXUXUXUXUXUXUXUXy.u.u.u.u.7 4 4 7 8 bX$ $ $ 0 0 bX$ mX  e 0 vXbX8 8 bX$ vX0 u.y.e.q.r.y.u.t.y.u.UXUXUXUXUXUXUXUXUXUXUXUX",
"UXUXUXUXUXUXUXUXUXUXUXUXy.y.u.u.u.bX7 7 # 1 1 # # 7 bX$ 0 w e     mX$ bX8 8 bX$ vX0 u.t.q.e.t.u.y.t.y.UXUXUXUXUXUXUXUXUXUXUXUXUX",
"UXUXUXUXUXUXUXUXUXUXUXUXy.y.u.u.bX5 # 1 1 # # 4 4 7 bX$ 0 q w     mX$ bX8 8 bX$ vXu.w w w w w w w y.u.UXUXUXUXUXUXUXUXUXUXUXUXUX",
"UXUXUXUXUXUXUXUXUXUXUXUXUXy.y.u.bX5 4 # # # # 4 4 7 bX$ 0 q w     e e 0 bXbXbX$ vXw w e e e e w w w u.UXUXUXUXUXUXUXUXUXUXUXUXUX",
"UXUXUXUXUXUXUXUXUXUXUXUXUXw y.u.bX5 4 # # # # 4 4 7 bX$ 0 q w   e e             w e e t.r.y.e e e w e UXUXUXUXUXUXUXUXUXUXUXUXUX",
"UXUXUXUXUXUXUXUXUXUXUXUXUXe e e e       e e e e e e e e e e     e e e e         w e t.r.u.u.e u.u.e e UXUXUXUXUXUXUXUXUXUXUXUXUX",
"UXUXUXUXUXUXUXUXUXUXUXUXUXUXe e e L.L.q q 0 vXvX0 q q w w e e e UXe e e         w e r.u.e e e u.u.e e UXUXUXUXUXUXUXUXUXUXUXUXUX",
"UXUXUXUXUXUXUXUXUXUXUXUXUXUXUXUXUXL.L.L.mXmXmXmXL.L.L.L.      e vXe e             e y.u.e e e u.u.e e UXUXUXUXUXUXUXUXUXUXUXUXUX",
"UXUXUXUXUXUXUXUXUXUXUXUXUXUXUXUXUXUXmXq 0 0 vX0 nXmXw L.L.L.w w vXe e             0 e e e u.u.e e e UXUXUXUXUXUXUXUXUXUXUXUXUXUX",
"UXUXUXUXUXUXUXUXUXUXUXUXUXUXUXUXUX4 mXq 0 0 vX0 nXmXw L.L.$ UXw vXq mXw L.e e         UXe u.u.e UXUXUXUXUXUXUXUXUXUXUXUXUXUXUXUX",
"UXUXUXUXUXUXUXUXUXUXUXUXUXUXUXUXUX8 mXq 0 0 vX0 nXmXw L.L.q UXUXvXvXe e               UXUXUXUXUXUXUXUXUXUXUXUXUXUXUXUXUXUXUXUXUX",
"UXUXUXUXUXUXUXUXUXUXUXUXUXUXUXUXUXUXUXmXq nXnXnXmXL.L.L.mXw UXUXvXvXq q w w w e e       UXUXUXUXUXUXUXUXUXUXUXUXUXUXUXUXUXUXUXUX",
"UXUXUXUXUXUXUXUXUXUXUXUXUXUXUXUXUXUXUXL.q bXbXbXbX$ $ $ nXL.UXUXUXq q q q w w e e       0 0 0 0 0 0 $ $ $ UXUXUXUXUXUXUXUXUXUXUX",
"UXUXUXUXUXUXUXUXUXUXUXUXUXUXUXUXUXUXmXbXnXnXnXnXnXnXvXvXnXmXL.8 8 $ $ 0 0 0 q q q q q q q q q q q q q q q q q 0 0 0 $ $ 8 8 8 UX",
"UXUXUXUXUXUXUXUXUXUXUXUXUXUXUXUXUXUXmXnXbXbXbXbXbXbXnXw nXmXL.$ $ $ 0 0 q q q w w w w w w w w w w w w w w w w w w q 0 $ $ 8 8 UX",
"UXUXUXUXUXUXUXUXUXUXUXUXUXUXUXUXUXUXmXbXbXnXnXnXnXnXw vXw mXL.w w q q q q q q q q q q q q q q q q q q q q q q q q q 0 $ 8 UXUXUX",
"UXUXUXUXUXUXUXUXUXUXUXUXUXUXUXUXUXUXmXbXnXnX0 0 vXvXvXw mXmXL.w q q q 0 0 $ 8 UXUXUXUXUXUXUXUXUXUXUXUX8 8 8 $ $ 0 q 0 $ 8 UXUXUX"
};
