/* XPM */
static char *_2c5d3a8842f4918c019be17295a650dDv6Z7JdIGKvkKmwJ[] = {
/* columns rows colors chars-per-pixel */
"64 64 256 2 ",
"   c black",
".  c #0000A8",
"X  c #00A800",
"o  c #00A8A8",
"O  c #A80000",
"+  c #A800A8",
"@  c #A85400",
"#  c gray66",
"$  c gray33",
"%  c #5454FC",
"&  c #54FC54",
"*  c #54FCFC",
"=  c #FC5454",
"-  c #FC54FC",
";  c #FCFC54",
":  c gray99",
">  c #ECECEC",
",  c gainsboro",
"<  c #D0D0D0",
"1  c #C0C0C0",
"2  c #B4B4B4",
"3  c gray66",
"4  c #989898",
"5  c gray55",
"6  c #7C7C7C",
"7  c gray44",
"8  c #646464",
"9  c gray33",
"0  c #484848",
"q  c gray22",
"w  c #2C2C2C",
"e  c #202020",
"r  c #FC0000",
"t  c #EC0000",
"y  c #E00000",
"u  c #D40000",
"i  c #C80000",
"p  c #BC0000",
"a  c #B00000",
"s  c #A40000",
"d  c #980000",
"f  c #880000",
"g  c #7C0000",
"h  c #700000",
"j  c #640000",
"k  c #580000",
"l  c #4C0000",
"z  c #400000",
"x  c #FCD8D8",
"c  c #FCB8B8",
"v  c #FC9C9C",
"b  c #FC7C7C",
"n  c #FC5C5C",
"m  c #FC4040",
"M  c #FC2020",
"N  c #FC0000",
"B  c #FCA85C",
"V  c #FC9840",
"C  c #FC8820",
"Z  c #FC7800",
"A  c #E46C00",
"S  c #CC6000",
"D  c #B45400",
"F  c #9C4C00",
"G  c #FCFCD8",
"H  c #FCFCB8",
"J  c #FCFC9C",
"K  c #FCFC7C",
"L  c #FCF85C",
"P  c #FCF440",
"I  c #FCF420",
"U  c #FCF400",
"Y  c #E4D800",
"T  c #CCC400",
"R  c #B4AC00",
"E  c #9C9C00",
"W  c #848400",
"Q  c #706C00",
"!  c #585400",
"~  c #404000",
"^  c #D0FC5C",
"/  c #C4FC40",
"(  c #B4FC20",
")  c #A0FC00",
"_  c #90E400",
"`  c #80CC00",
"'  c #74B400",
"]  c #609C00",
"[  c #D8FCD8",
"{  c #BCFCB8",
"}  c #9CFC9C",
"|  c #80FC7C",
" . c #60FC5C",
".. c #40FC40",
"X. c #20FC20",
"o. c #00FC00",
"O. c #00FC00",
"+. c #00EC00",
"@. c #00E000",
"#. c #00D400",
"$. c #04C800",
"%. c #04BC00",
"&. c #04B000",
"*. c #04A400",
"=. c #049800",
"-. c #048800",
";. c #047C00",
":. c #047000",
">. c #046400",
",. c #045800",
"<. c #044C00",
"1. c #044000",
"2. c #D8FCFC",
"3. c #B8FCFC",
"4. c #9CFCFC",
"5. c #7CFCF8",
"6. c #5CFCFC",
"7. c #40FCFC",
"8. c #20FCFC",
"9. c #00FCFC",
"0. c #00E4E4",
"q. c #00CCCC",
"w. c #00B4B4",
"e. c #009C9C",
"r. c #008484",
"t. c #007070",
"y. c #005858",
"u. c #004040",
"i. c #5CBCFC",
"p. c #40B0FC",
"a. c #20A8FC",
"s. c #009CFC",
"d. c #008CE4",
"f. c #007CCC",
"g. c #006CB4",
"h. c #005C9C",
"j. c #D8D8FC",
"k. c #B8BCFC",
"l. c #9C9CFC",
"z. c #7C80FC",
"x. c #5C60FC",
"c. c #4040FC",
"v. c #2024FC",
"b. c #0004FC",
"n. c #0000FC",
"m. c #0000EC",
"M. c #0000E0",
"N. c #0000D4",
"B. c #0000C8",
"V. c #0000BC",
"C. c #0000B0",
"Z. c #0000A4",
"A. c #000098",
"S. c #000088",
"D. c #00007C",
"F. c #000070",
"G. c #000064",
"H. c #000058",
"J. c #00004C",
"K. c #000040",
"L. c #282828",
"P. c #FCE034",
"I. c #FCD424",
"U. c #FCCC18",
"Y. c #FCC008",
"T. c #FCB400",
"R. c #B420FC",
"E. c #A800FC",
"W. c #9800E4",
"Q. c #8000CC",
"!. c #7400B4",
"~. c #60009C",
"^. c #500084",
"/. c #440070",
"(. c #340058",
"). c #280040",
"_. c #FCD8FC",
"`. c #FCB8FC",
"'. c #FC9CFC",
"]. c #FC7CFC",
"[. c #FC5CFC",
"{. c #FC40FC",
"}. c #FC20FC",
"|. c #FC00FC",
" X c #E000E4",
".X c #C800CC",
"XX c #B400B4",
"oX c #9C009C",
"OX c #840084",
"+X c #6C0070",
"@X c #580058",
"#X c #400040",
"$X c #FCE8DC",
"%X c #FCE0D0",
"&X c #FCD8C4",
"*X c #FCD4BC",
"=X c #FCCCB0",
"-X c #FCC4A4",
";X c #FCBC9C",
":X c #FCB890",
">X c #FCB080",
",X c #FCA470",
"<X c #FC9C60",
"1X c #F0945C",
"2X c #E88C58",
"3X c #DC8854",
"4X c #D08050",
"5X c #C87C4C",
"6X c #BC7848",
"7X c #B47044",
"8X c #A86840",
"9X c #A0643C",
"0X c #9C6038",
"qX c #905C34",
"wX c #885830",
"eX c #80502C",
"rX c #744C28",
"tX c #6C4824",
"yX c #5C4020",
"uX c #543C1C",
"iX c #483818",
"pX c #403018",
"aX c #382C14",
"sX c #28200C",
"dX c #600064",
"fX c #006464",
"gX c #006060",
"hX c #00001C",
"jX c #00002C",
"kX c #302410",
"lX c #480048",
"zX c #500050",
"xX c #000034",
"cX c gray11",
"vX c #4C4C4C",
"bX c gray36",
"nX c gray25",
"mX c gray19",
"MX c #343434",
"NX c #D8F4F4",
"BX c #B8E8E8",
"VX c #9CDCDC",
"CX c #74C8C8",
"ZX c #48C0C0",
"AX c #20B4B4",
"SX c #20B0B0",
"DX c #00A4A4",
"FX c #009898",
"GX c #008C8C",
"HX c #008484",
"JX c #007C7C",
"KX c #007878",
"LX c #007474",
"PX c #007070",
"IX c #006C6C",
"UX c #980088",
/* pixels */
"UXUXUXUXUXUXUXUXUXUXUXUXUXUXUXUXUXUXUXUXUXUXUXUXUXUXUXUXUXUXUXUXUXUXUXUXUXUXUXUXUXUXUXUXUXUXUXUXUXUXUXUXUXUXUXUXUXUXUXUXUXUXUXUX",
"UXUXUXUXUXUXUXUXUXUXUXUXUXUXUXUXUXUXUXUXUXUXUXUXUXUXnX0 8 7 7 8 8 8 $ $ $ 0 nXUXUXUXUXUXUXUXUXUXUXUXUXUXUXUXUXUXUXUXUXUXUXUXUXUX",
"UXUXUXUXUXUXUXUXUXUXUXUXUXUXUXUXUXUXUXUXUXUXUXUX$ nX0 7 7 8 8 8 8 8 8 8 $ $ 0 0 0 UXUXUXUXUXUXUXUXUXUXUXUXUXUXUXUXUXUXUXUXUXUXUX",
"UXUXUXUXUXUXUXUXUXUXUXUXUXUXUXUXUXUXUXUXUXUXUXUX$ 6 # # 6 6 7 7 7 7 7 7 7 $ $ $ $ UXUXUXUXUXUXUXUXUXUXUXUXUXUXUXUXUXUXUXUXUXUXUX",
"UXUXUXUXUXUXUXUXUXUXUXUXUXUXUXUXUXUXUXUXUXUXUX$ 7 $ $ $ $ # : : : : : # $ $ q q $ q UXUXUXUXUXUXUXUXUXUXUXUXUXUXUXUXUXUXUXUXUXUX",
"UXUXUXUXUXUXUXUXUXUXUXUXUXUXUXUXUXUXUXUXUXUXUXq   $           # # #             e q UXUXUXUXUXUXUXUXUXUXUXUXUXUXUXUXUXUXUXUXUXUX",
"UXUXUXUXUXUXUXUXUXUXUXUXUXUXUXUXUXUXUXUXUXUXUXq $ 7 1 1 # # 6 6 6 $ $ $ q q q q   q UXUXUXUXUXUXUXUXUXUXUXUXUXUXUXUXUXUXUXUXUXUX",
"UXUXUXUXUXUXUXUXUXUXUXUXUXUXUXUXUXUXUXUXUXUXUXUXq q $ $ $ $ $ $ $ 0 0 0 q q q q q UXUXUXUXUXUXUXUXUXUXUXUXUXUXUXUXUXUXUXUXUXUXUX",
"UXUXUXUXUXUXUXUXUXUXUXUXUXUXUXUXUXUXUXUXUXUXUXUX7XV ,X:X-X-X>X4X4X9X,X;X;X,X1XV wXUXUXUXUXUXUXUXUXUXUXUXUXUXUXUXUXUXUXUXUXUXUXUX",
"UXUXUXUXUXUXUXUXUXUXUXUXUXUXUXUXUXUXUXUXUXUXUXUXeXB ,X:X<X<X1X,X1X,X1X<X1X3X1XB tXUXUXUXUXUXUXUXUXUXUXUXUXUXUXUXUXUXUXUXUXUXUXUX",
"UXUXUXUXUXUXUXUXUXUXUXUXUXUXUXUXUXUXUXUXUXUXUXUX7X3X<X2X<X<X7X< , < 7X<X1X7X4X7XwXUXUXUXUXUXUXUXUXUXUXUXUXUXUXUXUXUXUXUXUXUXUXUX",
"UXUXUXUXUXUXUXUXUXUXUXUXUXUXUXUXUXUXUXUXUXUXUXUXUX3X<X2X<X5X5X,X,X,X5X5X1X7X4X7XUXUXUXUXUXUXUXUXUXUXUXUXUXUXUXUXUXUXUXUXUXUXUXUX",
"UXUXUXUXUXUXUXUXUXUXUXUXUXUXUXUXUXUXUXUXUXUXUXUXUX3X<X,X<X,X<X,X,X,X<X,X1X3X4X7XUXUXUXUXUXUXUXUXUXUXUXUXUXUXUXUXUXUXUXUXUXUXUXUX",
"UXUXUXUXUXUXUXUXUXUXUXUXUXUXUXUXUXUXUXUXUXUXUXUXUX3X<X3X,X,X,X2X5X2X,X,X1X7X0XeXUXUXUXUXUXUXUXUXUXUXUXUXUXUXUXUXUXUXUXUXUXUXUXUX",
"UXUXUXUXUXUXUXUXUXUXUXUXUXUXUXUXUXUXUXUXUXUXUX      eX0X7X8X0XqXqXqXeXeXeXtXtXuX    UXUXUXUXUXUXUXUXUXUXUXUXUXUXUXUXUXUXUXUXUXUX",
"UXUXUXUXUXUXUXUXUXUXUXUXUXUXUXUXUXUXUXUXUXUXUX      uXeX5X7X7X5X7X7X8XeXeXeXtX      UXUXUXUXUXUXUXUXUXUXUXUXUXUXUXUXUXUXUXUXUXUX",
"UXUXUXUXUXUXUXUXUXUXUXUXUXUXUXUXUXUXUXUXUX;.:.,.      uXeX8X8Xa g 6X8XeXeXtXuX    <.>.>.>.UXUXUXUXUXUXUXUXUXUXUXUXUXUXUXUXUXUXUX",
"UXUXUXUXUXUXUXUXUXUXUXUXUXUXUXUXUXUXUX1 # # 5 :.,.,.    uXeXa s j l eXtXuX    <.>.;.>.>.$ # 5 6 $ UXUXUXUXUXUXUXUXUXUXUXUXUXUXUX",
"UXUXUXUXUXUXUXUXUXUXUXUXUXUXUX-.=.=.-.1 # # 5 ,.-.-.-.>.;.;.;.>.<.<.>.;.;.;.<.>.;.;.1.1.:.# 5 6 $ :.:.UXUXUXUXUXUXUXUXUXUXUXUXUX",
"UXUXUXUXUXUXUXUXUXUXUXUXUX-.-.=.=.=.-.-.-.-.-.:.,.-.-.<.>.:.:.:.:.:.:.:.<.<.1.1.1.,.,.>.:.;.;.;.:.:.:.:.,.UXUXUXUXUXUXUXUXUXUXUX",
"UXUXUXUXUXUXUXUXUXUXUX-.-.=.=.=.=.=.-.-.-.;.;.;.;.;.;.;.;.,.1.1.1.1.1.1.1.,.>.:.:.g :.;.;.;.;.;.:.:.:.:.>.,.,.UXUXUXUXUXUXUXUXUX",
"UXUXUXUXUXUXUXUXUXUX-.-.=.=.=.=.=.-.-.-.-.;.;.;.;.a a ;.;.;.;.;.>.<.>.>.-.;.;.;.;.;.d ;.;.;.;.;.:.:.:.:.:.>.,.,.UXUXUXUXUXUXUXUX",
"UXUXUXUXUXUXUXUXUX%.%.$.*.*.*.-.-.;.-.;.;.;.;.;.;.a g ;.;.;.;.;.>.<.>.>.-.;.p ;.;.;.;.;.;.;.;.;.:.:.:.-.*.-.:.:.,.UXUXUXUXUXUXUX",
"UXUXUXUXUXUXUXUX*.>.,.,.,.1.1.1.1.1.;.;.;.;.;.;.;.;.;.;.;.g ;.;.;.>.<.>.:.-.;.;.a ;.d ;.;.;.;.;.:.:.1.1.1.1.1.<.1.,.UXUXUXUXUXUX",
"UXUXUXUXUXUXUXF.F.K.w w w w w w   1.<.<.>.i ;.;.;.;.;.;.;.;.;.;.p f <.>.:.g ;.;.;.;.;.;.;.;.;.:.>.1.1.          1.1.1.UXUXUXUXUX",
"UXUXUXUXUXUXG.D.A.C.A.A.S.F.G.0 w     1.1.1.<.>.>.;.;.;.;.;.;.;.f h <.>.:.-.;.;.g ;.;.;.:.:.:.>.<.1.  F.D.D.F.F.  q q UXUXUXUXUX",
"UXUXUXUXUXUXD.G.H.G.F.F.G.H.K.H.0         1.1.1.f 1.1.1.1.1.1.1.1.1.d <.>.1.d 1.1.1.1.1.1.1.1.<.1.  G.K.K.K.K.  G.  UXUXUXUXUXUX",
"UXUXUXUXUXUXG.G.S.A.A.A.S.G.J.H.0 l f         1.1.1.1.1.1.1.1.1.1.1.l d l g 1.d 1.1.1.1.1.1.1.1.  K.K.F.F.F.F.G.  K.UXUXUXUXUXUX",
"UXUXUXUXUXUXK.S.S.A.A.A.D.G.J.K.J.      l f l           z p z z z j j h j j z z z z     l   l     H.G.F.F.F.F.G.H.J.K.UXUXUXUXUX",
"UXUXUXUXUXUX7 S.G.e e e e t.GXGXGXGXIX    l l l     e e e e e e l l l l l l l l e e e       j l K.H.H.G.F.F.F.G.H.J.K.UXUXUXUXUX",
"UXUXUXUXUXUXH.D.e H.D.D.t.FXr.DXDXGXt.IX    l e w w i nXnXq q MXMXmXd d p d MXMXp MXw w p e     K.H.H.H.G.G.G.G.H.J.K.UXUXUXUXUX",
"UXUXUXUXUXUXJ.e H.F.D.u.r.t.r.GXDXJXt.IXu.  e e w nXnXq q q q q p e mXmXMXq q q q q q w w e       H.H.H.          J.K.UXUXUXUXUX",
"UXUXUXUXUXUXe J.H.F.F.y.t.t.r.r.DXJXt.IXy.    e e w mXw e e e e e e mXmXmXe e e e       e e   UX  K.K.  K.F.F.H.K.  K.K.UXUXUXUX",
"UXUXUXUXUXUXJ.J.H.G.G.y.t.t.KXKXt.y.y.y.y.e e e e e e w mXmXmXmXmXmXmXmXmXmXp mXmXw e e       UX  K.  S.b.b.A.F.H.H.K.K.UXUXUXUX",
"UXUXUXUXUXUXJ.J.H.H.H.y.t.t.y.w w w w w u.e e e e w MXnXnX0 0 0 0 0 0 0 nXnX6 # # # 4 6 6 bXvXUXUXK.3Xb.b.b.C.D.H.H.K.K.UXUXUXUX",
"UXUXUXUXUXUXUXJ.J.H.H.u.y.u.w u.t.e.u.e u.e e w 6 8 8 8 8 mXe e e e e e 6 8 8 8 8 8 8 q q 6 bXvXUX7XeXH.b.C.C.C.D.H.K.K.UXUXUXUX",
"UXUXUXUXUXUXUXJ.J.J.J.J.y.w KXy.t.e.t.r.u.u.  6 q q q q q 8 vXmXmXe e 6 8 6 4 # # # 4 4 6 8 q vXUXH.H.3X7XS.C.C.C.G.K.UXUXUXUXUX",
"UXUXUXUXUXUXUXUXJ.J.J.J.y.t.t.w w w w e e u.6 q 6 6 6 $ vXe e vXmXe 6 8 6 4 # # # # # # 4 6 8 q q UXK.eX9X7XS.Z.Z.S.K.UXUXUXUXUX",
"UXUXUXUXUXUXUXUXUXJ.J.J.y.t.w w e e e e e e e 6 4 6 8 $ vXq w e e e 8 6 4 4 # # s l # # 4 4 6 q q UXUXK.eX0X0XS.S.G.UXUXUXUXUXUX",
"UXUXUXUXUXUXUXUXUXUXUXJ.u.w w e e.t.u.u.e e e 4 6 6 8 $ vXq w w e e q 6 4 a # s j UXs # a s 6 vXq UXUXUXy.IXIXIXy.UXUXUXUXUXUXUX",
"UXUXUXUXUXUXUXUXUXUXUXUXu.w e e.u.e e u.u.e e 4 6 8 8 $ vXw w w e e q 6 a UXs UXl # UXs UX4 g UXq UXUXy.IXLXLXLXIXy.UXUXUXUXUXUX",
"UXUXUXUXUXUXUXUXUXUXUXUXUXw e y.u.e u.e q e e 4 6 8 8 $ 0 w w e e 6 q s UXs UXj # j g UXa g 6 a UXUXu.y.y.IXIXIXIXy.y.UXUXUXUXUX",
"UXUXUXUXUXUXUXUXUXUXUXUXUXe e u.e e e e u.e e 6 8 8 $ vX0 w w e e 6 8 UXg # # # # # # # # 4 6 8 q 8 u.y.y.y.y.y.y.y.y.UXUXUXUXUX",
"UXUXUXUXUXUXUXUXUXUXUXUXUXUXe y.u.e u.u.e e 4 6 8 8 $ vXq w w e q 8 8 UX4 # 6 6 6 6 6 6 8 8 6 8 q 0 u.u.y.y.y.y.y.y.y.UXUXUXUXUX",
"UXUXUXUXUXUXUXUXUXUXUXUXUXUXUXe u.u.u.e e 4 4 6 8 8 $ vXq w w e e e UX6 4 8 4 4 # # 4 4 6 8 8 q   w MXu.u.y.y.y.y.y.u.UXUXUXUXUX",
"UXUXUXUXUXUXUXUXUXUXUXUXUXUXUXUXUXUXUX# # 4 4 6 8 8 $ 0 w w e e e e UX4 8 4 4 4 # # 4 4 6 6 8 q q w mXu.u.u.u.u.u.u.w UXUXUXUXUX",
"UXUXUXUXUXUXUXUXUXUXUXUXUXUXUXUXUXUX# # 4 4 6 6 8 $ vX0 w w e e e e UX8 6 4 4 4 # # 4 4 6 6 8 vXq e w MXu.u.u.u.w w UXUXUXUXUXUX",
"UXUXUXUXUXUXUXUXUXUXUXUXUXUXUXUXUXUX# 4 4 4 6 6 8 $ 0 q w w e q e e UX8 6 # # 1 1 1 # # 4 4 vXq q e e e e e w w UXUXUXUXUXUXUXUX",
"UXUXUXUXUXUXUXUXUXUXUXUXUXUXUXUXUXUX4 q q 0 0 0 0 0 q q w e e e e UXUX8 # cXL.L.L.L.L.e e e 6 8   e e e e   w UXUXUXUXUXUXUXUXUX",
"UXUXUXUXUXUXUXUXUXUXUXUXUXUXUXUXUXUXq 6 6 6 6 6 8 8 $     e e e UXUXUX6 cXmXq 0 vXvX0 nXmXw e cX          w UXUXUXUXUXUXUXUXUXUX",
"UXUXUXUXUXUXUXUXUXUXUXUXUXUXUXUXUXUX6 6 6 6 6 8 8 0 q w e e e e UXUXUXcXL.mXq 0 vXvX0 nXmXw w e UX      UXUXUXUXUXUXUXUXUXUXUXUX",
"UXUXUXUXUXUXUXUXUXUXUXUXUXUXUXUXUXUXUX8 8 8 vXq w w e           cXUXUXw w mXq 0 vXvX0 nXmXw L.L.UXUXUXUXUXUXUXUXUXUXUXUXUXUXUXUX",
"UXUXUXUXUXUXUXUXUXUXUXUXUXUXUXUXUXUXUXvXmX                      cXUXUXw 4 mXq 0 vXvX0 nXmXw L.L.UXUXUXUXUXUXUXUXUXUXUXUXUXUXUXUX",
"UXUXUXUXUXUXUXUXUXUXUXUXUXUXUXUXUXUXUXUX  cXcXcXcXcX            cXUXUXUX8 mXq 0 vXvX0 nXmXw L.e UXUXUXUXUXUXUXUXUXUXUXUXUXUXUXUX",
"UXUXUXUXUXUXUXUXUXUXUXUXUXUXUXUXUXUXUXUXUXUXcXcXcX              cXUXUXUXw mXL.L.L.L.L.L.L.e e UXUXUXUXUXUXUXUXUXUXUXUXUXUXUXUXUX",
"UXUXUXUXUXUXUXUXUXUXUXUXUXUXUXUXUXUXUXUXUXUXUXUXe e             e UXUXUXUXL.nX$ $ $ nXnXnXq e UXUXUXUXUXUXUXUXUXUXUXUXUXUXUXUXUX",
"UXUXUXUXUXUXUXUXUXUXUXUXUXUXUXUXUXUXUXUXUXUXUXvXw w e e e       e UXUXUXbXnXvXvXnXw w w w w mXe UXUXUXUXUXUXUXUXUXUXUXUXUXUXUXUX",
"UXUXUXUXUXUXUXUXUXUXUXUXUXUXUXUXUXUXUXUXUXUXUXvXvX              e UXUXvXnXbXbXbXbXbX$ vX0 nXw mXUXUXUXUXUXUXUXUXUXUXUXUXUXUXUXUX",
"UXUXUXUXUXUXUXUXUXUXUXUXUXUXUXUXUXUXUXUXUXUXvXq w w w mXw L.e e e UXUXvXbXbXbXbXbXvXnXnXq mXmXe UXUXUXUXUXUXUXUXUXUXUXUXUXUXUXUX",
"UXUXUXUXUXUXUXUXUXUXUXUXUXUXUXUXUXUXUXUXUXUXvXvXnXmXmXw mXw L.e e 0 UXvXvXbXvXvXnXnXw w w w w e q 0 0 0 0 0 0 0 $ $ 8 UXUXUXUXUX",
"UXUXUXUXUXUXUXUXUXUXUXUXUXUXUXUXUXUX8 8 8 8 8 $ $ $ 0 0 0 0 q q w w q q vXvXvXnXvXvXvX0 0 nXe q q q q q q q q 0 0 $ $ 8 8 UXUXUX",
"UXUXUXUXUXUXUXUXUXUXUXUXUXUXUXUXUXUXUXUXUXUXUXUXUX8 8 8 $ $ 0 0 q w w w w e e e e e e e e e w w w w w w q q 0 0 0 $ $ 8 8 8 UXUX",
"UXUXUXUXUXUXUXUXUXUXUXUXUXUXUXUXUXUXUXUXUXUXUXUXUXUXUXUX$ $ $ $ 0 0 0 0 q q q q w w w w w w w w w w q q 0 0 0 0 $ $ 8 8 8 8 UXUX",
"UXUXUXUXUXUXUXUXUXUXUXUXUXUXUXUXUXUXUXUXUXUXUXUXUXUXUXUXUXUXUXUX$ $ $ $ 0 0 0 0 q q q q q q q q q q 0 0 0 0 0 $ $ 8 8 UXUXUXUXUX"
};
