/* XPM */
static char *a0577658877b4219a427783beed6985d21LYtIPRFa05BT3e[] = {
/* columns rows colors chars-per-pixel */
"64 64 256 2 ",
"   c black",
".  c #0000A8",
"X  c #00A800",
"o  c #00A8A8",
"O  c #A80000",
"+  c #A800A8",
"@  c #A85400",
"#  c gray66",
"$  c gray33",
"%  c #5454FC",
"&  c #54FC54",
"*  c #54FCFC",
"=  c #FC5454",
"-  c #FC54FC",
";  c #FCFC54",
":  c gray99",
">  c #ECECEC",
",  c gainsboro",
"<  c #D0D0D0",
"1  c #C0C0C0",
"2  c #B4B4B4",
"3  c gray66",
"4  c #989898",
"5  c gray55",
"6  c #7C7C7C",
"7  c gray44",
"8  c #646464",
"9  c gray33",
"0  c #484848",
"q  c gray22",
"w  c #2C2C2C",
"e  c #202020",
"r  c #FC0000",
"t  c #EC0000",
"y  c #E00000",
"u  c #D40000",
"i  c #C80000",
"p  c #BC0000",
"a  c #B00000",
"s  c #A40000",
"d  c #980000",
"f  c #880000",
"g  c #7C0000",
"h  c #700000",
"j  c #640000",
"k  c #580000",
"l  c #4C0000",
"z  c #400000",
"x  c #FCD8D8",
"c  c #FCB8B8",
"v  c #FC9C9C",
"b  c #FC7C7C",
"n  c #FC5C5C",
"m  c #FC4040",
"M  c #FC2020",
"N  c #FC0000",
"B  c #FCA85C",
"V  c #FC9840",
"C  c #FC8820",
"Z  c #FC7800",
"A  c #E46C00",
"S  c #CC6000",
"D  c #B45400",
"F  c #9C4C00",
"G  c #FCFCD8",
"H  c #FCFCB8",
"J  c #FCFC9C",
"K  c #FCFC7C",
"L  c #FCF85C",
"P  c #FCF440",
"I  c #FCF420",
"U  c #FCF400",
"Y  c #E4D800",
"T  c #CCC400",
"R  c #B4AC00",
"E  c #9C9C00",
"W  c #848400",
"Q  c #706C00",
"!  c #585400",
"~  c #404000",
"^  c #D0FC5C",
"/  c #C4FC40",
"(  c #B4FC20",
")  c #A0FC00",
"_  c #90E400",
"`  c #80CC00",
"'  c #74B400",
"]  c #609C00",
"[  c #D8FCD8",
"{  c #BCFCB8",
"}  c #9CFC9C",
"|  c #80FC7C",
" . c #60FC5C",
".. c #40FC40",
"X. c #20FC20",
"o. c #00FC00",
"O. c #00FC00",
"+. c #00EC00",
"@. c #00E000",
"#. c #00D400",
"$. c #04C800",
"%. c #04BC00",
"&. c #04B000",
"*. c #04A400",
"=. c #049800",
"-. c #048800",
";. c #047C00",
":. c #047000",
">. c #046400",
",. c #045800",
"<. c #044C00",
"1. c #044000",
"2. c #D8FCFC",
"3. c #B8FCFC",
"4. c #9CFCFC",
"5. c #7CFCF8",
"6. c #5CFCFC",
"7. c #40FCFC",
"8. c #20FCFC",
"9. c #00FCFC",
"0. c #00E4E4",
"q. c #00CCCC",
"w. c #00B4B4",
"e. c #009C9C",
"r. c #008484",
"t. c #007070",
"y. c #005858",
"u. c #004040",
"i. c #5CBCFC",
"p. c #40B0FC",
"a. c #20A8FC",
"s. c #009CFC",
"d. c #008CE4",
"f. c #007CCC",
"g. c #006CB4",
"h. c #005C9C",
"j. c #D8D8FC",
"k. c #B8BCFC",
"l. c #9C9CFC",
"z. c #7C80FC",
"x. c #5C60FC",
"c. c #4040FC",
"v. c #2024FC",
"b. c #0004FC",
"n. c #0000FC",
"m. c #0000EC",
"M. c #0000E0",
"N. c #0000D4",
"B. c #0000C8",
"V. c #0000BC",
"C. c #0000B0",
"Z. c #0000A4",
"A. c #000098",
"S. c #000088",
"D. c #00007C",
"F. c #000070",
"G. c #000064",
"H. c #000058",
"J. c #00004C",
"K. c #000040",
"L. c #282828",
"P. c #FCE034",
"I. c #FCD424",
"U. c #FCCC18",
"Y. c #FCC008",
"T. c #FCB400",
"R. c #B420FC",
"E. c #A800FC",
"W. c #9800E4",
"Q. c #8000CC",
"!. c #7400B4",
"~. c #60009C",
"^. c #500084",
"/. c #440070",
"(. c #340058",
"). c #280040",
"_. c #FCD8FC",
"`. c #FCB8FC",
"'. c #FC9CFC",
"]. c #FC7CFC",
"[. c #FC5CFC",
"{. c #FC40FC",
"}. c #FC20FC",
"|. c #FC00FC",
" X c #E000E4",
".X c #C800CC",
"XX c #B400B4",
"oX c #9C009C",
"OX c #840084",
"+X c #6C0070",
"@X c #580058",
"#X c #400040",
"$X c #FCE8DC",
"%X c #FCE0D0",
"&X c #FCD8C4",
"*X c #FCD4BC",
"=X c #FCCCB0",
"-X c #FCC4A4",
";X c #FCBC9C",
":X c #FCB890",
">X c #FCB080",
",X c #FCA470",
"<X c #FC9C60",
"1X c #F0945C",
"2X c #E88C58",
"3X c #DC8854",
"4X c #D08050",
"5X c #C87C4C",
"6X c #BC7848",
"7X c #B47044",
"8X c #A86840",
"9X c #A0643C",
"0X c #9C6038",
"qX c #905C34",
"wX c #885830",
"eX c #80502C",
"rX c #744C28",
"tX c #6C4824",
"yX c #5C4020",
"uX c #543C1C",
"iX c #483818",
"pX c #403018",
"aX c #382C14",
"sX c #28200C",
"dX c #600064",
"fX c #006464",
"gX c #006060",
"hX c #00001C",
"jX c #00002C",
"kX c #302410",
"lX c #480048",
"zX c #500050",
"xX c #000034",
"cX c gray11",
"vX c #4C4C4C",
"bX c gray36",
"nX c gray25",
"mX c gray19",
"MX c #343434",
"NX c #D8F4F4",
"BX c #B8E8E8",
"VX c #9CDCDC",
"CX c #74C8C8",
"ZX c #48C0C0",
"AX c #20B4B4",
"SX c #20B0B0",
"DX c #00A4A4",
"FX c #009898",
"GX c #008C8C",
"HX c #008484",
"JX c #007C7C",
"KX c #007878",
"LX c #007474",
"PX c #007070",
"IX c #006C6C",
"UX c #980088",
/* pixels */
"UXUXUXUXUXUXUXUXUXUXUXUXUXUXUXUXUXUXUXUXUXUXUXUXUXUXUXUXUXUXUXUXUXUXUXUXUXUXUXUXUXUXUXUXUXUXUXUXUXUXUXUXUXUXUXUXUXUXUXUXUXUXUXUX",
"UXUXUXUXUXUXUXUXUXUXUXUXUXUXUXUXUXUXUXUXUXUXUXUXUXUXUXUXUXUXUXUXUXUXUXUXUXUXUXUXUXUXUXUXUXUXUXUXUXUXUXUXUXUXUXUXUXUXUXUXUXUXUXUX",
"UXUXUXUXUXUXUXUXUXUXUXUXUXUXUXUXUXUXUXUXUXUXUXUXUXUXUXUXUXUXUXUXUXUXUXUXUXUXUXUXUXUXUXUXUXUXUXUXUXUXUXUXUXUXUXUXUXUXUXUXUXUXUXUX",
"UXUXUXUXUXUXUXUXUXUXUXUXUXUXUXUXUXUXUXUXUXUXUXUXUXUXUXUXUXUXUXUXUXUXUXUXUXUXUXUXUXUXUXUXUXUXUXUXUXUXUXUXUXUXUXUXUXUXUXUXUXUXUXUX",
"UXUXUXUXUXUXUXUXUXUXUXUXUXUXUXUXUXUXUXUXUXUXUXUXUXUXUXUXUXUXUXUXUXUXUXUXUXUXUXUXUXUXUXUXUXUXUXUXUXUXUXUXUXUXUXUXUXUXUXUXUXUXUXUX",
"UXUXUXUXUXUXUXUXUXUXUXUXUXUXUXUXUXUXUXUXUXUXUXUXUXUXUXUXUXUXUXUXUXUXUXUXUXUXUXUXUXUXUXUXUXUXUXUXUXUXUXUXUXUXUXUXUXUXUXUXUXUXUXUX",
"UXUXUXUXUXUXUXUXUXUXUXUXUXUXUXUXUXUXUXUXUXUXUXUXUXUXUXUXUXUXUXUXUXUXUXUXUXUXUXUXUXUXUXUXUXUXUXUXUXUXUXUXUXUXUXUXUXUXUXUXUXUXUXUX",
"UXUXUXUXUXUXUXUXUXUXUXUXUXUXUXUXUXUXUXUXUXUXUXUXUXUXUXUXUX3X>X-X&X-X>X3XUXUXUXUXUXUXUXUXUXUXUXUXUXUXUXUXUXUXUXUXUXUXUXUXUXUXUXUX",
"UXUXUXUXUXUXUXUXUXUXUXUXUXUXUXUXUXUXUXUXUXUXUXUXUXUXnX0 8 7 7 8 8 8 $ $ $ 0 nXUXUXUXUXUXUXUXUXUXUXUXUXUXUXUXUXUXUXUXUXUXUXUXUXUX",
"UXUXUXUXUXUXUXUXUXUXUXUXUXUXUXUXUXUXUXUXUXUXUXUX$ nX0 7 7 8 8 8 8 8 8 8 $ $ 0 0 0 UXUXUXUXUXUXUXUXUXUXUXUXUXUXUXUXUXUXUXUXUXUXUX",
"UXUXUXUXUXUXUXUXUXUXUXUXUXUXUXUXUXUXUXUXUXUXUXUX$ 6 # # 6 6 7 7 7 7 7 7 7 $ $ $ $ UXUXUXUXUXUXUXUXUXUXUXUXUXUXUXUXUXUXUXUXUXUXUX",
"UXUXUXUXUXUXUXUXUXUXUXUXUXUXUXUXUXUXUXUXUXUXUX$ 7 $ $ $ $ # : : : : : # $ $ q q $ q UXUXUXUXUXUXUXUXUXUXUXUXUXUXUXUXUXUXUXUXUXUX",
"UXUXUXUXUXUXUXUXUXUXUXUXUXUXUXUXUXUXUXUXUXUXUXq   $           # # #             e q UXUXUXUXUXUXUXUXUXUXUXUXUXUXUXUXUXUXUXUXUXUX",
"UXUXUXUXUXUXUXUXUXUXUXUXUXUXUXUXUXUXUXUXUXUXUXq $ 7 1 1 # # 6 6 6 $ $ $ q q q q   q UXUXUXUXUXUXUXUXUXUXUXUXUXUXUXUXUXUXUXUXUXUX",
"UXUXUXUXUXUXUXUXUXUXUXUXUXUXUXUXUXUXUXUXUXUXUXUXq q $ $ $ $ $ $ $ 0 0 0 q q q q q UXUXUXUXUXUXUXUXUXUXUXUXUXUXUXUXUXUXUXUXUXUXUX",
"UXUXUXUXUXUXUXUXUXUXUXUXUXUXUXUXUXUXUXUXUXUXUXUXUX  <X2X9X9Xa qXqXqXeX9X9X7X7XUXUXUXUXUXUXUXUXUXUXUXUXUXUXUXUXUXUXUXUXUXUXUXUXUX",
"UXUXUXUXUXUXUXUXUXUXUXUXUXUXUXUXUXUXUXUXUXUXUXUX      9X9XqXg qX7XqX8XeX9X9XqXg d h UXUXUXUXUXUXUXUXUXUXUXUXUXUXUXUXUXUXUXUXUXUX",
"UXUXUXUXUXUXUXUXUXUXUXUXUXUXUXUXUXUXUXUXUXUXUX        p qXs g g g 6X8XeXqX9XtXd     i UXUXUXUXUXUXUXUXUXUXUXUXUXUXUXUXUXUXUXUXUX",
"UXUXUXUXUXUXUXUXUXUXUXUXUXUXUXUXUX=.=.-.-.-.>.>.1.1.      =.>.1.1.t 1.>.      w t >.>.<.<.<.1.UXUXUXUXUXUXUXUXUXUXUXUXUXUXUXUXUX",
"UXUXUXUXUXUXUXUXUXUX%.$.$.$.*.-.-.;.=.=.=.d =.=.=.=.=.=.=.=.=.=.=.p =.=.=.=.<.-.-.=.t k &.&.&.&.&.=.=.$.$.$.$.*.=.UXUXUXUXUXUXUX",
"UXUXUXUXUXUXUXUX%.%.%.,.,.1.1.1.1.1.;.-.-.-.-.=.=.=.=.=.=.=.=.=.>.<.-.p %.=.=.=.=.=.=.=.=.=.&.p &.&.$.1.1.1.1.,.,.=.>.UXUXUXUXUX",
"UXUXUXUXUXUXUX%.>.&.=.=.-.,.,.q q 1.<.;.p -.-.-.=.=.t h =.=.=.=.=.p <.p t %.=.=.=.t k =.=.=.=.=.&.$.<.1.K.K.K.H.H.# 6 UXUXUXUXUX",
"UXUXUXUXUXUX%.>.=.C.A.A.S.H.H.    q 1.1.>.-.-.-.=.=.d =.=.=.=.d h p <.p =.%.=.=.=.=.t k =.=.=.=.$.1.1.K.S.S.F.F.F.    6 UXUXUXUX",
"UXUXUXUXUXUX%.-.A.e e e e F.G.H.    q 1.1.<.>.;.-.=.=.=.=.p =.=.=.y d p =.%.*.=.=.=.;.;.;.>.<.<.1.1.K.S.G.K.K.K.K.F.  8 UXUXUXUX",
"UXUXUXUXUXUXV.S.G.H.Z.Z.S.t.GXGXGXGXIXq q 1.1.1.t h 1.1.1.1.1.1.1.s h y >.t 1.1.1.1.1.1.1.1.1.1.1.K.S.K.K.S.A.A.S.F.F.8 UXUXUXUX",
"UXUXUXUXUXUXG.H.H.D.S.Z.t.t.w w w w e e u.q   1.1.1.1.1.g 1.1.p 1.d k y z 1.1.1.1.1.d 1.g 1.1.1.  S.F.H.H.F.F.S.A.S.F.F.UXUXUXUX",
"UXUXUXUXUXUXK.e H.F.D.u.t.w w e e e e e e   z           z z z j z j k j z z z z z z z z           S.K.H.G.F.F.F.F.        UXUXUX",
"UXUXUXUXUXUX7 J.H.F.F.y.w w e e.t.t.y.e e z       z e e e j j j j j j j j j j e t   z z z         F.jXH.G.G.G.G.  F.F.H.K.  UXUX",
"UXUXUXUXUXUXH.J.H.G.G.y.w e e.t.e e u.y.e z   z e w nX$ y $ y a a f a a a a $ y nXw e     z   z   H.jXK.J.J.J.  F.F.F.F.F.K.UXUX",
"UXUXUXUXUXUXJ.J.H.H.H.y.w e y.u.e u.e q e z z e w nX$ vXnXnXnXq q w MXMXMXnXnXnXnXw e     e       K.jXK.K.K.K.S.b.b.C.F.F.H.K.UX",
"UXUXUXUXUXUXUXJ.J.H.H.u.e e y.e e e e u.e z z e w w q q w w w w $ $ $ 0 MXz k g g d d g g k z mX      jXjXjX3Xb.b.b.C.C.F.H.K.UX",
"UXUXUXUXUXUXUXUXJ.J.J.J.e e y.u.e u.u.e e   e e w w w w 0 $ $ 0 q d   0 z k g d d d d d d g k z           7XeXH.S.S.C.C.C.H.K.UX",
"UXUXUXUXUXUXUXUXUXJ.J.J.J.e e u.u.u.e e   e e e w nXnXnX0 e e cX      z k g d d d d d d d d g k z           K.3X7X0XS.C.C.S.K.UX",
"UXUXUXUXUXUXUXUXUXUXUXUXJ.u.e e e e e     e e e 6 8 8 8 $ e e cXe e q k g d d d d d d d d d d g k UXUXUXUXUXK.eX9X7X0XS.Z.S.K.UX",
"UXUXUXUXUXUXUXUXUXUXUXUXUXu.u.e UXUXUXUX  e q q q q q q q q q e e e z k g d d d d d b d d d d g k z UXUXUXUXUXK.eX0X0X0XS.G.UXUX",
"UXUXUXUXUXUXUXUXUXUXUXUXUXUXUXUXUXUXUXUXUX$ $ 6 6 6 6 8 8 mXw e e e k k g d d d d b d d d d d g k k UXUXUXUXUXUXK.eX0X0XK.UXUXUX",
"UXUXUXUXUXUXUXUXUXUXUXUXUXUXUXUXUXUXUXUXUX$ 6 6 4 4 6 8 8 q mXe e e z k g d d d d d h d a a d h 6 d h UXUXUXUXUXUXUXUXUXUXUXUXUX",
"UXUXUXUXUXUXUXUXUXUXUXUXUXUXUXUXUXUXUXUXUX4 # # 4 4 6 8 $ q mXe e 6 e k g d d d 6 d 4 a 6 d 6 a a 6 d h UXUXUXUXUXUXUXUXUXUXUXUX",
"UXUXUXUXUXUXUXUXUXUXUXUXUXUXUXUXUXUXUXUXUX# # 4 4 6 6 8 $ q mXe e 8 e z k g d 6 a 6 d # a # d 4 6 a q 0 mXUXUXUXUXUXUXUXUXUXUXUX",
"UXUXUXUXUXUXUXUXUXUXUXUXUXUXUXUXUXUXUXUX# # # 4 4 6 6 8 $ q mXe e q e e z k g a 6 d # h 1 1 # # 4 6 8 h e UXUXUXUXUXUXUXUXUXUXUX",
"UXUXUXUXUXUXUXUXUXUXUXUXUXUXUXUXUXUXUXUX# # # 4 4 6 6 8 0 mXmXe e e e e UXUXh d 4 h # # 1 h # # 4 4 d $ e UXUXUXUXUXUXUXUXUXUXUX",
"UXUXUXUXUXUXUXUXUXUXUXUXUXUXUXUXUXUXUX# # # 4 4 4 6 8 $ 0 mXw e e e e e UXUX8 6 4 # 6 6 6 d 6 6 h d 6 $ e UXUXUXUXUXUXUXUXUXUXUX",
"UXUXUXUXUXUXUXUXUXUXUXUXUXUXUXUXUXUXUX# # # 4 4 6 6 8 $ q mXw e e e e e UXUX8 6 4 d h 4 # # 4 4 6 6 q q e UXUXUXUXUXUXUXUXUXUXUX",
"UXUXUXUXUXUXUXUXUXUXUXUXUXUXUXUXUXUXUX# # # 4 4 6 8 8 $ q w e e e e UXUXUXUXe 4 6 # # 1 1 1 # # 4 4 mXmXe UXUXUXUXUXUXUXUXUXUXUX",
"UXUXUXUXUXUXUXUXUXUXUXUXUXUXUXUXUXUX# # # 4 4 6 6 8 $ q q w e e e e UXUXUXUXe 8 # cXL.L.L.L.L.e e e 6 $ e UXUXUXUXUXUXUXUXUXUXUX",
"UXUXUXUXUXUXUXUXUXUXUXUXUXUXUXUXUXUX# 4 4 4 4 6 6 8 q q w w e e e e UXUXUXUXUX8 cXmX0 $ bX$ vXnXmXw e cXe UXUXUXUXUXUXUXUXUXUXUX",
"UXUXUXUXUXUXUXUXUXUXUXUXUXUXUXUXUXUX4 e e e e e e e e q w w e e e UXUXUXUXUXUXe L.mX0 $ bX$ vX0 mXw w   UXy.y.y.y.u.UXUXUXUXUXUX",
"UXUXUXUXUXUXUXUXUXUXUXUXUXUXUXUXUXUX  6 6 6 6 6 6 6 6     e e e e UXUXUXUXUXUXe w mX0 $ bX$ vX0 mXw L.  y.y.IXIXy.y.u.UXUXUXUXUX",
"UXUXUXUXUXUXUXUXUXUXUXUXUXUXUXUXUXUX6 6 6 6 6 8 8 $ q q q e e e e UXUXUXUXUXUXUX4 mX0 $ bX$ vX0 mXw L.  y.y.y.y.y.y.y.u.UXUXUXUX",
"UXUXUXUXUXUXUXUXUXUXUXUXUXUXUXUXUXUX8 6 6 6 8 8 0 0 0 q q e e e UXUXUXUXUXUXUXUX8 mX0 $ bX$ vX0 mXw L.u.u.y.y.y.y.y.y.MXUXUXUXUX",
"UXUXUXUXUXUXUXUXUXUXUXUXUXUXUXUXUXUXe 8 8 8 $ $ 0 0 0 q q e e e   UXUXUXUXUXUXUXw mXL.L.L.L.L.L.L.e e e u.u.y.y.y.y.u.MXUXUXUXUX",
"UXUXUXUXUXUXUXUXUXUXUXUXUXUXUXUXUXUXUXq w w w e e e e e e e e     UXUXUXUXUXUXUXw L.nX$ $ $ $ $ $ q e L.u.u.u.u.u.u.MXMXUXUXUXUX",
"UXUXUXUXUXUXUXUXUXUXUXUXUXUXUXUXUXUXUXq q w w e e e e e e e       UXUXUXUXUXUXUXbXnXvX$ nXw w w w w mXe MXu.u.u.u.MXMXw UXUXUXUX",
"UXUXUXUXUXUXUXUXUXUXUXUXUXUXUXUXUXUXUXUXq q w w e e               UXUXUXUXUXUXUXnXbXbXbXbXbX$ $ $ nXw mXMXMXMXMXMXw w UXUXUXUXUX",
"UXUXUXUXUXUXUXUXUXUXUXUXUXUXUXUXUXUXUXUXUXq q w w                 UXUXUXUXUXUXUXbXbXbXbXbXvXnXnXq mXmXe w w w w w w UXUXUXUXUXUX",
"UXUXUXUXUXUXUXUXUXUXUXUXUXUXUXUXUXUXUXUXUXUXUX                      UXUXUXUXUXUXvXbXvXvXnXnXw w w w w UXUXUXUXUXUXUXUXUXUXUXUXUX",
"UXUXUXUXUXUXUXUXUXUXUXUXUXUXUXUXUXUXUXUXUXUXUXUXUXe e             e UXUXUXUXUXUXUXvXvXnXvXvXvX0 0 nXe UXUXUXUXUXUXUXUXUXUXUXUXUX",
"UXUXUXUXUXUXUXUXUXUXUXUXUXUXUXUXUXUXUXUXUXUXUXUXvXe e cXcXcXcX    e UXUXUXUXUXUXUXUXe e e e e e e e UXUXUXUXUXUXUXUXUXUXUXUXUXUX",
"UXUXUXUXUXUXUXUXUXUXUXUXUXUXUXUXUXUXUXUXUXUXUXUXvXw w e e e cX    e 0 0 0 0 0 0 0 0 0 0 0 0 0 0 0 0 0 UXUXUXUXUXUXUXUXUXUXUXUXUX",
"UXUXUXUXUXUXUXUXUXUXUXUXUXUXUXUXUXUXUXUXUXUXUXvXvXvXcXcXcXcXcXcX  e q q q q q q q q q q q q q q q nXnX0 0 0 0 0 $ $ 8 UXUXUXUXUX",
"UXUXUXUXUXUXUXUXUXUXUXUXUXUXUXUXUXUXUXUXUXUX8 vXq w w w mXw L.e e e q q q q q q q q q q q q q q q q q q q q q 0 0 $ $ 8 8 UXUXUX",
"UXUXUXUXUXUXUXUXUXUXUXUXUXUXUXUXUXUXUXUXUXUXUXvXvXnXmXmXw mXw L.e e w w w w w w w w w w w w w w w w w w q q nX0 0 $ $ 8 8 8 UXUX",
"UXUXUXUXUXUXUXUXUXUXUXUXUXUXUXUXUXUXUXUXUXUXUXUXUX$ $ 0 0 0 q q q q q q q q q q w w w w w w w w w w q q nX0 0 0 $ $ 8 8 8 8 UXUX",
"UXUXUXUXUXUXUXUXUXUXUXUXUXUXUXUXUXUXUXUXUXUXUXUXUXUXUXUXUX$ $ $ 0 0 nXnXq q q q q q q q q q q q q q nX0 0 0 0 $ $ 8 8 UXUXUXUXUX"
};
