/* XPM */
static char *e5ce3b6ba0b84e6afe25512e40e1e2a6rUmVCHeqtR9KfBEn[] = {
/* columns rows colors chars-per-pixel */
"64 64 256 2 ",
"   c black",
".  c #0000A8",
"X  c #00A800",
"o  c #00A8A8",
"O  c #A80000",
"+  c #A800A8",
"@  c #A85400",
"#  c gray66",
"$  c gray33",
"%  c #5454FC",
"&  c #54FC54",
"*  c #54FCFC",
"=  c #FC5454",
"-  c #FC54FC",
";  c #FCFC54",
":  c gray99",
">  c #ECECEC",
",  c gainsboro",
"<  c #D0D0D0",
"1  c #C0C0C0",
"2  c #B4B4B4",
"3  c gray66",
"4  c #989898",
"5  c gray55",
"6  c #7C7C7C",
"7  c gray44",
"8  c #646464",
"9  c gray33",
"0  c #484848",
"q  c gray22",
"w  c #2C2C2C",
"e  c #202020",
"r  c #FC0000",
"t  c #EC0000",
"y  c #E00000",
"u  c #D40000",
"i  c #C80000",
"p  c #BC0000",
"a  c #B00000",
"s  c #A40000",
"d  c #980000",
"f  c #880000",
"g  c #7C0000",
"h  c #700000",
"j  c #640000",
"k  c #580000",
"l  c #4C0000",
"z  c #400000",
"x  c #FCD8D8",
"c  c #FCB8B8",
"v  c #FC9C9C",
"b  c #FC7C7C",
"n  c #FC5C5C",
"m  c #FC4040",
"M  c #FC2020",
"N  c #FC0000",
"B  c #FCA85C",
"V  c #FC9840",
"C  c #FC8820",
"Z  c #FC7800",
"A  c #E46C00",
"S  c #CC6000",
"D  c #B45400",
"F  c #9C4C00",
"G  c #FCFCD8",
"H  c #FCFCB8",
"J  c #FCFC9C",
"K  c #FCFC7C",
"L  c #FCF85C",
"P  c #FCF440",
"I  c #FCF420",
"U  c #FCF400",
"Y  c #E4D800",
"T  c #CCC400",
"R  c #B4AC00",
"E  c #9C9C00",
"W  c #848400",
"Q  c #706C00",
"!  c #585400",
"~  c #404000",
"^  c #D0FC5C",
"/  c #C4FC40",
"(  c #B4FC20",
")  c #A0FC00",
"_  c #90E400",
"`  c #80CC00",
"'  c #74B400",
"]  c #609C00",
"[  c #D8FCD8",
"{  c #BCFCB8",
"}  c #9CFC9C",
"|  c #80FC7C",
" . c #60FC5C",
".. c #40FC40",
"X. c #20FC20",
"o. c #00FC00",
"O. c #00FC00",
"+. c #00EC00",
"@. c #00E000",
"#. c #00D400",
"$. c #04C800",
"%. c #04BC00",
"&. c #04B000",
"*. c #04A400",
"=. c #049800",
"-. c #048800",
";. c #047C00",
":. c #047000",
">. c #046400",
",. c #045800",
"<. c #044C00",
"1. c #044000",
"2. c #D8FCFC",
"3. c #B8FCFC",
"4. c #9CFCFC",
"5. c #7CFCF8",
"6. c #5CFCFC",
"7. c #40FCFC",
"8. c #20FCFC",
"9. c #00FCFC",
"0. c #00E4E4",
"q. c #00CCCC",
"w. c #00B4B4",
"e. c #009C9C",
"r. c #008484",
"t. c #007070",
"y. c #005858",
"u. c #004040",
"i. c #5CBCFC",
"p. c #40B0FC",
"a. c #20A8FC",
"s. c #009CFC",
"d. c #008CE4",
"f. c #007CCC",
"g. c #006CB4",
"h. c #005C9C",
"j. c #D8D8FC",
"k. c #B8BCFC",
"l. c #9C9CFC",
"z. c #7C80FC",
"x. c #5C60FC",
"c. c #4040FC",
"v. c #2024FC",
"b. c #0004FC",
"n. c #0000FC",
"m. c #0000EC",
"M. c #0000E0",
"N. c #0000D4",
"B. c #0000C8",
"V. c #0000BC",
"C. c #0000B0",
"Z. c #0000A4",
"A. c #000098",
"S. c #000088",
"D. c #00007C",
"F. c #000070",
"G. c #000064",
"H. c #000058",
"J. c #00004C",
"K. c #000040",
"L. c #282828",
"P. c #FCE034",
"I. c #FCD424",
"U. c #FCCC18",
"Y. c #FCC008",
"T. c #FCB400",
"R. c #B420FC",
"E. c #A800FC",
"W. c #9800E4",
"Q. c #8000CC",
"!. c #7400B4",
"~. c #60009C",
"^. c #500084",
"/. c #440070",
"(. c #340058",
"). c #280040",
"_. c #FCD8FC",
"`. c #FCB8FC",
"'. c #FC9CFC",
"]. c #FC7CFC",
"[. c #FC5CFC",
"{. c #FC40FC",
"}. c #FC20FC",
"|. c #FC00FC",
" X c #E000E4",
".X c #C800CC",
"XX c #B400B4",
"oX c #9C009C",
"OX c #840084",
"+X c #6C0070",
"@X c #580058",
"#X c #400040",
"$X c #FCE8DC",
"%X c #FCE0D0",
"&X c #FCD8C4",
"*X c #FCD4BC",
"=X c #FCCCB0",
"-X c #FCC4A4",
";X c #FCBC9C",
":X c #FCB890",
">X c #FCB080",
",X c #FCA470",
"<X c #FC9C60",
"1X c #F0945C",
"2X c #E88C58",
"3X c #DC8854",
"4X c #D08050",
"5X c #C87C4C",
"6X c #BC7848",
"7X c #B47044",
"8X c #A86840",
"9X c #A0643C",
"0X c #9C6038",
"qX c #905C34",
"wX c #885830",
"eX c #80502C",
"rX c #744C28",
"tX c #6C4824",
"yX c #5C4020",
"uX c #543C1C",
"iX c #483818",
"pX c #403018",
"aX c #382C14",
"sX c #28200C",
"dX c #600064",
"fX c #006464",
"gX c #006060",
"hX c #00001C",
"jX c #00002C",
"kX c #302410",
"lX c #480048",
"zX c #500050",
"xX c #000034",
"cX c gray11",
"vX c #4C4C4C",
"bX c gray36",
"nX c gray25",
"mX c gray19",
"MX c #343434",
"NX c #D8F4F4",
"BX c #B8E8E8",
"VX c #9CDCDC",
"CX c #74C8C8",
"ZX c #48C0C0",
"AX c #20B4B4",
"SX c #20B0B0",
"DX c #00A4A4",
"FX c #009898",
"GX c #008C8C",
"HX c #008484",
"JX c #007C7C",
"KX c #007878",
"LX c #007474",
"PX c #007070",
"IX c #006C6C",
"UX c #980088",
/* pixels */
"UXUXUXUXUXUXUXUXUXUXUXUXUXUXUXUXUXUXUXUXUXUXUXUX$ nX0 7 7 8 8 8 8 8 8 8 $ $ 0 0 0 UXUXUXUXUXUXUXUXUXUXUXUXUXUXUXUXUXUXUXUXUXUXUX",
"UXUXUXUXUXUXUXUXUXUXUXUXUXUXUXUXUXUXUXUXUXUXUXUX$ 6 # # 6 6 7 7 7 7 7 7 7 $ $ $ $ UXUXUXUXUXUXUXUXUXUXUXUXUXUXUXUXUXUXUXUXUXUXUX",
"UXUXUXUXUXUXUXUXUXUXUXUXUXUXUXUXUXUXUXUXUXUXUX$ 7 $ $ $ $ # : : : : : # $ $ q q $ q UXUXUXUXUXUXUXUXUXUXUXUXUXUXUXUXUXUXUXUXUXUX",
"UXUXUXUXUXUXUXUXUXUXUXUXUXUXUXUXUXUXUXUXUXUXUXq   $           # # #             e q UXUXUXUXUXUXUXUXUXUXUXUXUXUXUXUXUXUXUXUXUXUX",
"UXUXUXUXUXUXUXUXUXUXUXUXUXUXUXUXUXUXUXUXUXUXUXq $ 7 1 1 # # 6 6 6 $ $ $ q q q q   q UXUXUXUXUXUXUXUXUXUXUXUXUXUXUXUXUXUXUXUXUXUX",
"UXUXUXUXUXUXUXUXUXUXUXUXUXUXUXUXUXUXUXUXUXUXUXUXq q $ $ $ $ $ $ $ 0 0 0 q q q q q UXUXUXUXUXUXUXUXUXUXUXUXUXUXUXUXUXUXUXUXUXUXUX",
"UXUXUXUXUXUXUXUXUXUXUXUXUXUXUXUXUXUXUXUXUXUXUXUXUXC ,X7XuXeX5X,X,X,X5XeXuX7X1XC UXUXUXUXUXUXUXUXUXUXUXUXUXUXUXUXUXUXUXUXUXUXUXUX",
"UXUXUXUXUXUXUXUXUXUXUXUXUXUXUXUXUXUXUXUXUXUXUXUXUXC ,X;X1 F.$ yXwXyX$ F.4 4X1XC UXUXUXUXUXUXUXUXUXUXUXUXUXUXUXUXUXUXUXUXUXUXUXUX",
"UXUXUXUXUXUXUXUXUXUXUXUXUXUXUXUXUXUXUXUXUXUXUXUX7XV ,X:X>X>X,X,X<X6X2X>X>X>X1XV wXUXUXUXUXUXUXUXUXUXUXUXUXUXUXUXUXUXUXUXUXUXUXUX",
"UXUXUXUXUXUXUXUXUXUXUXUXUXUXUXUXUXUXUXUXUXUXUXUXeXB ,X:X-X-X>X4X4X9X,X;X;X,X1XB tXUXUXUXUXUXUXUXUXUXUXUXUXUXUXUXUXUXUXUXUXUXUXUX",
"UXUXUXUXUXUXUXUXUXUXUXUXUXUXUXUXUXUXUXUXUXUXUXUX7X3X<X2X<X7X1X,X1X,X1X7X1X3X4X7XwXUXUXUXUXUXUXUXUXUXUXUXUXUXUXUXUXUXUXUXUXUXUXUX",
"UXUXUXUXUXUXUXUXUXUXUXUXUXUXUXUXUXUXUXUXUXUXUXUX  3X<X2X<X7X1 < , < 1 7X1X7X4X7X  UXUXUXUXUXUXUXUXUXUXUXUXUXUXUXUXUXUXUXUXUXUXUX",
"UXUXUXUXUXUXUXUXUXUXUXUXUXUXUXUXUXUXUXUXUXUXUX    3X<X2X<X5X1 < , < 1 5X1X7X4X7X    UXUXUXUXUXUXUXUXUXUXUXUXUXUXUXUXUXUXUXUXUXUX",
"UXUXUXUXUXUXUXUXUXUXUXUXUXUXUXUXUXUXUXUXUXUXUX      <X,X<X,X<X,X,X,X<X,X1X3X7X      UXUXUXUXUXUXUXUXUXUXUXUXUXUXUXUXUXUXUXUXUXUX",
"UXUXUXUXUXUXUXUXUXUXUXUXUXUXUXUXUXUX2 2 :.,.,.        3X,X,X,X2X5X2X,X,X1X7XeX      1.,.:.-.2 2 UXUXUXUXUXUXUXUXUXUXUXUXUXUXUXUX",
"UXUXUXUXUXUXUXUXUXUXUXUXUXUX-.-.-.-.5 5 -.-.,.        0X7X8X0XqXqXqXeXeXeXtXuX      1.,.-.-.5 5 -.-.-.-.UXUXUXUXUXUXUXUXUXUXUXUX",
"UXUXUXUXUXUXUXUXUXUXUX-.-.=.=.=.=.1 # # 5 -.-.,.    1.<.5X7X7X5X7X7X8XeXeXeX<.    ,.,.,.-.1 # # 5 =.=.=.=.-.>.UXUXUXUXUXUXUXUXUX",
"UXUXUXUXUXUXUXUXUX-.-.=.=.=.-.-.-.6 7 7 $ -.-.:.,.,.1.:.>.<.8X2X4X6X8XeX<.<.1.<.,.,.,.:.-.6 7 7 $ -.-.-.=.;.:.>.>.UXUXUXUXUXUXUX",
"UXUXUXUXUXUXUXUX-.-.=.=.=.-.-.;.;.;.;.;.;.;.;.;.:.:.>.,.>.:.>.>.,.<.<.<.<.1.>.>.:.:.;.;.;.;.;.;.;.;.;.;.;.;.;.:.>.>.UXUXUXUXUXUX",
"UXUXUXUXUXUXUX-.-.=.=.=.-.-.;.;.;.;.;.;.;.;.;.;.;.;.;.;.;.>.,.1.1.1.1.1.1.>.;.;.;.;.;.;.;.;.;.;.;.;.;.;.;.;.;.:.:.>.,.UXUXUXUXUX",
"UXUXUXUXUX*.*.&.%.&.*.*.-.;.;.;.;.;.;.;.;.;.;.;.;.;.;.;.;.;.;.<.>.>.-.;.;.;.;.;.;.;.;.;.;.;.;.;.;.;.;.;.;.-.=.=.-.-.-.-.:.UXUXUX",
"UXUXUXUXUX:.:.>.,.,.,.1.1.1.1.1.;.;.;.;.;.;.;.;.;.;.;.;.;.;.;.<.>.>.-.;.;.;.;.;.;.;.;.;.;.;.;.;.;.;.1.1.1.1.1.,.,.,.>.>.>.UXUXUX",
"UXUXUXUXUXUX                1.1.<.:.;.;.:.:.:.:.:.:.:.:.:.:.:.<.>.>.-.:.:.:.:.:.:.:.:.:.:.:.:.:.:.<.1.1.                UXUXUXUX",
"UXUXUXUXUXG.F.D.S.S.D.D.F.G.    1.1.<.:.:.:.:.:.:.:.:.:.:.:.:.<.>.>.-.:.:.:.:.:.:.:.:.:.:.:.:.<.1.1.    F.S.S.S.S.S.D.F.UXUXUXUX",
"UXUXUXUXUXG.G.H.K.K.K.K.K.K.H.      1.<.:.:.:.:.:.:.:.:.:.:.:.<.>.>.-.:.:.:.:.:.:.:.:.:.:.:.<.1.      F.K.K.H.H.H.H.K.K.G.UXUXUX",
"UXUXUXUXUXUXG.D.S.S.D.D.F.G.K.J.      1.<.:.:.:.:.:.:.:.:.:.:.<.>.>.-.:.:.:.:.:.:.:.:.:.:.<.1.      J.K.F.S.S.D.F.G.G.H.K.UXUXUX",
"UXUXUXUXUX7 F.D.S.S.D.D.F.G.H.K.        1.1.1.1.1.1.1.1.1.1.1.        1.1.1.1.1.1.1.1.1.1.1.        K.H.D.S.S.D.F.G.G.H.8 UXUXUX",
"UXUXUXUXUX0 D.S.S.S.D.D.G.H.J.K.UX                                                                UXJ.G.D.S.S.D.F.G.G.H.0 UXUXUX",
"UXUXUXUXUXH.D.S.S.S.D.F.G.H.J.K.UX  e e e e e e e e e e e e e e e e e e e e e e e e e e e e e     UXJ.G.D.S.S.D.D.F.G.G.H.UXUXUX",
"UXUXUXUXUXF.D.S.S.S.D.F.G.H.K.UXUXe e e e w w nXq q q q q MXMXmXw w nXq q q q MXMXMXe e e e e     UXJ.G.F.D.S.S.D.F.G.G.H.8 UXUX",
"UXUXUXUX7 F.D.S.S.S.D.F.H.H.K.UXUXUXe e e w w MXw w w w w w w e w w MXw w w w w w w   e e e     UXUXUXJ.G.t.GXGXGXt.y.G.G.0 UXUX",
"UXUXUXUXF.G.D.D.y.IXGXGXJXy.UXUXUXUXUXe e e w w e e e e e e e e w w w e e e e         e e     UXUXUXUXJ.t.FXFXFXGXr.t.u.H.H.UXUX",
"UXUXUXUXe e J.y.IXGXr.JXJXt.y.UXUXUXUXUXe nXq w w w w w w w w w w w w w w w w e e e e e e   UXUXUXUXUXt.r.FXGXr.r.r.t.y.u.e UXUX",
"UXUXUXH.H.J.u.IXJXr.KXDXDXKXy.u.UXUXUXUXe w nXnXnXnX0 0 0 0 0 0 0 0 0 nXnXq q MXMXMXmXw e e   UXUXUXUXt.r.GXr.DXGXt.t.y.u.K.UXUX",
"UXUXUXJ.e e y.IXJXKXGXGXIXIXy.u.UXUXUXUXUXe e e e e w nXnX0 0 0 0 0 nXnXq w               e UXUXUXUXUXy.t.r.DXJXJXy.t.y.u.e UXUX",
"UXUXUXe J.J.y.t.JXKXGXIXIXIXu.u.UXUXUXbX4 4 4 # # e e e     w MXMXMXw w e     w vX# 4 4 7 7 bXUXUXUXUXy.t.t.DXJXJXJXy.t.u.K.UXUX",
"UXUXUXJ.J.u.IXKXJXt.GXIXIXIXu.u.UXUX$ 4 6 0 $ $ $ $ $ 4 e e             w vX4 # # 6 bXvXvX0 7 vXUXUXUXy.t.t.DXJXJXJXy.t.u.K.UXUX",
"UXUXUXJ.J.y.IXJXKXt.JXIXIXy.u.u.UX0 6 w 0 5 4 4 4 4 7 $ 0 w 0 e e e   w bXbXvXbX6 # # 4 4 7 0 bXvXUXUXu.y.KXDXJXJXJXy.t.u.K.UXUX",
"UXUXUXJ.J.y.IXJXt.JXIXIXIXy.u.u.UX0 w bX6 5 4 4 # # 4 4 7 bXw 0 e e 0 bXe vX4 # # # # 4 4 7 bXe vXUXUXu.y.KXDXJXJXJXy.t.u.K.UXUX",
"UXUXUXUXJ.y.t.JXt.JXIXIXIXu.u.UXUXw $ bX7 5 4 4 # # 4 4 7 bX0 e     0 e 7 6 4 # # # # 4 4 7 7 vXe 0 UXu.y.KXDXJXJXJXy.t.u.K.UXUX",
"UXUXUXUXJ.IXKXJXt.JXIXIXIXu.u.UXUX0 $ bX7 5 4 4 # # 4 4 7 bX0 e     q 0 8 6 4 # # # # 4 4 4 7 bXe vXUXu.y.KXDXJXJXJXy.t.y.u.UXUX",
"UXUXUXUXy.IXJXKXIXJXIXIXy.u.u.UX8 0 $ bX7 5 4 4 # # 4 4 7 bX0 e 8   0 0 8 6 4 # # # # 4 4 4 7 bXvXUXUXUXu.KXDXJXJXJXy.t.y.u.UXUX",
"UXUXUXUXy.t.JXt.JXIXIXIXy.u.u.UXq 0 $ bX7 5 4 4 # # 4 4 7 bX0 e q   w 0 8 6 4 # # # # 4 4 4 7 7 vXUXUXUXu.t.KXDXJXJXy.t.y.u.UXUX",
"UXUXUXUXy.w w w w w w u.u.u.UXUXUX0 $ bX7 5 4 4 # # 4 4 7 bX0 e     mX0 8 6 4 # # # # # 4 4 7 7 vXUXUXUXu.y.t.y.u.w w w w w UXUX",
"UXUXUXUXw y.t.r.t.y.u.w w u.UXUXUX0 $ bX7 5 4 4 # # 4 4 7 bX0 e     mX0 8 6 4 # # # # # 4 4 7 7 vXUXUXUXu.w w w w u.e u.w UXUXUX",
"UXUXUXUXUXt.r.w.r.t.u.u.w w UXUX8 0 $ bX7 5 4 4 # # 4 4 7 bX0 e 8   0 0 8 6 4 # # # # # 4 4 7 7 vXUXUXUXu.e u.r.t.t.y.u.w w UXUX",
"UXUXUXUXUXt.e.w.r.t.u.w e UXUXUXq 0 $ bXq 0 vX$ $ $ vX$ 7 bX0 e q   w 0 8 6 4 # # # # # 4 4 4 7 vXUXUXUXUXy.t.q.e.t.y.u.w w UXUX",
"UXUXUXUXt.r.w.e.t.y.u.w e UXUXUXUXe q q # # 1 # # 4 7 7 0 q e e     mX0 8 6 4 # # # # # 4 4 4 7 bXUXUXUXUXy.t.e.q.r.y.u.w w UXUX",
"UXUXUXUXt.r.w.r.t.y.u.w e UXUXUXUX0 bX# 7 4 4 4 4 4 7 7 bX$ 0 e   e   mX8 6 4 4 bXbXbXbXvXvXmXmXbXUXUXUXUXy.t.e.q.r.t.u.w w UXUX",
"UXUXUXUXt.r.w.r.t.u.u.e UXUXUXUXUX0 bX7 7 4 4 4 4 4 7 8 bX$ 0 e   e e   e e 0 0 bX7 # 4 4 4 7 bXe 0 UXUXUXy.t.e.q.e.t.y.u.w UXUX",
"UXUXUXUXt.e.w.r.t.u.w e UXUXUXUXUX0 bX7 7 4 4 4 4 4 7 8 bX$ 0 e   e L.0 0 7 7 4 # # # # 4 4 7 bXe 0 UXUXUXUXy.e.q.e.t.y.u.w UXUX",
"UXUXUXt.r.w.e.t.y.u.w e UXUXUXUXUX                                e L.  0 0 0 0 0 0 0 0 0 0 q e mXUXUXUXUXUXy.e.q.e.t.y.u.w UXUX",
"UXUXUXt.r.w.r.t.y.u.w e UXUXUXUXUXe e w mXq q nXq q mXw w L.e   UXe w L.    q q q q q q q q mX  0 UXUXUXUXUXy.e.q.e.t.y.u.w UXUX",
"UXUXUXt.r.w.r.t.u.u.w UXUXUXUXUXUXe L.L.L.L.L.L.L.e e e         UXe w L.                      e UXUXUXUXUXUXy.t.u.w w e e e e UX",
"UXUXw w w w w u.u.w e UXUXUXUXUXUXe w mXq nX0 nXq mXw L.L.e e UXUXe w L.e               e e UXUXUXUXUXUXUXUXw w w e e e e e e UX",
"UXUXe e e e e e e e e e UXUXUXUXUXUX8 mXq nX0 nXq mXw L.L.e $ UXUXe w w               e UXUXUXUXUXUXUXUXUXe w w e y.u.u.  q e UX",
"UXUXUXu.e u.q w e e e e UXUXUXUXUXUX0 mXq q 0 nXq mXw L.e e w UXUXe q q w w e e e     L.UXUXUXUXUXUXUXUXUXe e y.u.e e e e e UXUX",
"UXUXUXUXUXu.u.u.e w e UXUXUXUXUXUXUXUXmXe e mXw w w L.L.e e UXUXUXe q q q w w w e e   e UXUXUXUXUXUXUXUXUXUXUXe e e e e UXUXUXUX",
"UXUXUXUXUXUXUXUXUXUXUXUXUXUXUXUXUXUXUXL.nXnXnXnXnXnXnXq q L.UXUXUXUXe e e e e         e UXUXUXUXUXUXUXUXUXUXUXUXUXUXUXUXUXUXUXUX",
"UXUXUXUXUXUXUXUXUXUXUXUXUXUXUXUXUXUXmXnXnXw w w w w w w w q mXUXUXUXe q q w w w e e   e UXUXUXUXUXUXUXUXUXUXUXUXUXUXUXUXUXUXUXUX",
"UXUXUXUXUXUXUXUXUXUXUXUXUXUXUXUXUXUXnXmXvXvXvX0 0 nXnXnXnXw mXUXUXUXUXe e e e e e e e UXUXUXUXUXUXUXUXUXUXUXUXUXUXUXUXUXUXUXUXUX",
"UXUXUXUXUXUXUXUXUXUXUXUXUXUXUXUXUXUX0 vXvX0 0 nXnXw w w w nXmX$ $ $ 0 0 0 0 q q q q q q q q q q q q q q q q q q 0 0 0 $ $ 8 8 UX",
"UXUXUXUXUXUXUXUXUXUXUXUXUXUXUXUXUXUXvXvX0 0 nXvXvXvXvXvXnXw mXq q w w w w w w w w w w w w w w w w w w w q q q q q 0 $ $ 8 8 8 UX",
"UXUXUXUXUXUXUXUXUXUXUXUXUXUXUXUXUXUXUXUXUXUXUXUXUXUXUXUXUX8 8 8 8 8 8 8 8 8 8 8 8 8 8 8 8 8 8 8 8 8 8 8 8 8 8 8 8 8 8 8 UXUXUXUX"
};
