/* XPM */
static char *cf161d4f02f649a3e689c905df1b14534E8Tm0XmLm1eRT0y[] = {
/* columns rows colors chars-per-pixel */
"64 64 256 2 ",
"   c black",
".  c #0000A8",
"X  c #00A800",
"o  c #00A8A8",
"O  c #A80000",
"+  c #A800A8",
"@  c #A85400",
"#  c gray66",
"$  c gray33",
"%  c #5454FC",
"&  c #54FC54",
"*  c #54FCFC",
"=  c #FC5454",
"-  c #FC54FC",
";  c #FCFC54",
":  c gray99",
">  c #ECECEC",
",  c gainsboro",
"<  c #D0D0D0",
"1  c #C0C0C0",
"2  c #B4B4B4",
"3  c gray66",
"4  c #989898",
"5  c gray55",
"6  c #7C7C7C",
"7  c gray44",
"8  c #646464",
"9  c gray33",
"0  c #484848",
"q  c gray22",
"w  c #2C2C2C",
"e  c #202020",
"r  c #FC0000",
"t  c #EC0000",
"y  c #E00000",
"u  c #D40000",
"i  c #C80000",
"p  c #BC0000",
"a  c #B00000",
"s  c #A40000",
"d  c #980000",
"f  c #880000",
"g  c #7C0000",
"h  c #700000",
"j  c #640000",
"k  c #580000",
"l  c #4C0000",
"z  c #400000",
"x  c #FCD8D8",
"c  c #FCB8B8",
"v  c #FC9C9C",
"b  c #FC7C7C",
"n  c #FC5C5C",
"m  c #FC4040",
"M  c #FC2020",
"N  c #FC0000",
"B  c #FCA85C",
"V  c #FC9840",
"C  c #FC8820",
"Z  c #FC7800",
"A  c #E46C00",
"S  c #CC6000",
"D  c #B45400",
"F  c #9C4C00",
"G  c #FCFCD8",
"H  c #FCFCB8",
"J  c #FCFC9C",
"K  c #FCFC7C",
"L  c #FCF85C",
"P  c #FCF440",
"I  c #FCF420",
"U  c #FCF400",
"Y  c #E4D800",
"T  c #CCC400",
"R  c #B4AC00",
"E  c #9C9C00",
"W  c #848400",
"Q  c #706C00",
"!  c #585400",
"~  c #404000",
"^  c #D0FC5C",
"/  c #C4FC40",
"(  c #B4FC20",
")  c #A0FC00",
"_  c #90E400",
"`  c #80CC00",
"'  c #74B400",
"]  c #609C00",
"[  c #D8FCD8",
"{  c #BCFCB8",
"}  c #9CFC9C",
"|  c #80FC7C",
" . c #60FC5C",
".. c #40FC40",
"X. c #20FC20",
"o. c #00FC00",
"O. c #00FC00",
"+. c #00EC00",
"@. c #00E000",
"#. c #00D400",
"$. c #04C800",
"%. c #04BC00",
"&. c #04B000",
"*. c #04A400",
"=. c #049800",
"-. c #048800",
";. c #047C00",
":. c #047000",
">. c #046400",
",. c #045800",
"<. c #044C00",
"1. c #044000",
"2. c #D8FCFC",
"3. c #B8FCFC",
"4. c #9CFCFC",
"5. c #7CFCF8",
"6. c #5CFCFC",
"7. c #40FCFC",
"8. c #20FCFC",
"9. c #00FCFC",
"0. c #00E4E4",
"q. c #00CCCC",
"w. c #00B4B4",
"e. c #009C9C",
"r. c #008484",
"t. c #007070",
"y. c #005858",
"u. c #004040",
"i. c #5CBCFC",
"p. c #40B0FC",
"a. c #20A8FC",
"s. c #009CFC",
"d. c #008CE4",
"f. c #007CCC",
"g. c #006CB4",
"h. c #005C9C",
"j. c #D8D8FC",
"k. c #B8BCFC",
"l. c #9C9CFC",
"z. c #7C80FC",
"x. c #5C60FC",
"c. c #4040FC",
"v. c #2024FC",
"b. c #0004FC",
"n. c #0000FC",
"m. c #0000EC",
"M. c #0000E0",
"N. c #0000D4",
"B. c #0000C8",
"V. c #0000BC",
"C. c #0000B0",
"Z. c #0000A4",
"A. c #000098",
"S. c #000088",
"D. c #00007C",
"F. c #000070",
"G. c #000064",
"H. c #000058",
"J. c #00004C",
"K. c #000040",
"L. c #282828",
"P. c #FCE034",
"I. c #FCD424",
"U. c #FCCC18",
"Y. c #FCC008",
"T. c #FCB400",
"R. c #B420FC",
"E. c #A800FC",
"W. c #9800E4",
"Q. c #8000CC",
"!. c #7400B4",
"~. c #60009C",
"^. c #500084",
"/. c #440070",
"(. c #340058",
"). c #280040",
"_. c #FCD8FC",
"`. c #FCB8FC",
"'. c #FC9CFC",
"]. c #FC7CFC",
"[. c #FC5CFC",
"{. c #FC40FC",
"}. c #FC20FC",
"|. c #FC00FC",
" X c #E000E4",
".X c #C800CC",
"XX c #B400B4",
"oX c #9C009C",
"OX c #840084",
"+X c #6C0070",
"@X c #580058",
"#X c #400040",
"$X c #FCE8DC",
"%X c #FCE0D0",
"&X c #FCD8C4",
"*X c #FCD4BC",
"=X c #FCCCB0",
"-X c #FCC4A4",
";X c #FCBC9C",
":X c #FCB890",
">X c #FCB080",
",X c #FCA470",
"<X c #FC9C60",
"1X c #F0945C",
"2X c #E88C58",
"3X c #DC8854",
"4X c #D08050",
"5X c #C87C4C",
"6X c #BC7848",
"7X c #B47044",
"8X c #A86840",
"9X c #A0643C",
"0X c #9C6038",
"qX c #905C34",
"wX c #885830",
"eX c #80502C",
"rX c #744C28",
"tX c #6C4824",
"yX c #5C4020",
"uX c #543C1C",
"iX c #483818",
"pX c #403018",
"aX c #382C14",
"sX c #28200C",
"dX c #600064",
"fX c #006464",
"gX c #006060",
"hX c #00001C",
"jX c #00002C",
"kX c #302410",
"lX c #480048",
"zX c #500050",
"xX c #000034",
"cX c gray11",
"vX c #4C4C4C",
"bX c gray36",
"nX c gray25",
"mX c gray19",
"MX c #343434",
"NX c #D8F4F4",
"BX c #B8E8E8",
"VX c #9CDCDC",
"CX c #74C8C8",
"ZX c #48C0C0",
"AX c #20B4B4",
"SX c #20B0B0",
"DX c #00A4A4",
"FX c #009898",
"GX c #008C8C",
"HX c #008484",
"JX c #007C7C",
"KX c #007878",
"LX c #007474",
"PX c #007070",
"IX c #006C6C",
"UX c #980088",
/* pixels */
"UXUXUXUXUXUXUXUXUXUXUXUXUXUXUXUXUXUXUXUXUXUXUXUXUXUXnX0 8 7 7 8 8 8 $ $ $ 0 nXUXUXUXUXUXUXUXUXUXUXUXUXUXUXUXUXUXUXUXUXUXUXUXUXUX",
"UXUXUXUXUXUXUXUXUXUXUXUXUXUXUXUXUXUXUXUXUXUXUXUX$ nX0 7 7 8 8 8 8 8 8 8 $ $ 0 0 0 UXUXUXUXUXUXUXUXUXUXUXUXUXUXUXUXUXUXUXUXUXUXUX",
"UXUXUXUXUXUXUXUXUXUXUXUXUXUXUXUXUXUXUXUXUXUXUX$ $ 6 # # 6 6 7 7 7 7 7 7 7 $ $ $ $ q UXUXUXUXUXUXUXUXUXUXUXUXUXUXUXUXUXUXUXUXUXUX",
"UXUXUXUXUXUXUXUXUXUXUXUXUXUXUXUXUXUXUXUXUXUXUXq 6 $ $ $ $ # : : : : : # $ $ q q $ q UXUXUXUXUXUXUXUXUXUXUXUXUXUXUXUXUXUXUXUXUXUX",
"UXUXUXUXUXUXUXUXUXUXUXUXUXUXUXUXUXUXUXUXUXUXUXq q $           # # #           q q q UXUXUXUXUXUXUXUXUXUXUXUXUXUXUXUXUXUXUXUXUXUX",
"UXUXUXUXUXUXUXUXUXUXUXUXUXUXUXUXUXUXUXUXUXUXUXUXq   1 1 # 6 6 7 7 7 8 $ 0 q q   q UXUXUXUXUXUXUXUXUXUXUXUXUXUXUXUXUXUXUXUXUXUXUX",
"UXUXUXUXUXUXUXUXUXUXUXUXUXUXUXUXUXUXUXUXUXUXUXUXUXq $ $ $ # 6 7 7 7 $ 0 q q q q UXUXUXUXUXUXUXUXUXUXUXUXUXUXUXUXUXUXUXUXUXUXUXUX",
"UXUXUXUXUXUXUXUXUXUXUXUXUXUXUXUXUXUXUXUXUXUXUXUXUXC ,X$ $ $ $ $ $ 0 0 0 q q 1XC UXUXUXUXUXUXUXUXUXUXUXUXUXUXUXUXUXUXUXUXUXUXUXUX",
"UXUXUXUXUXUXUXUXUXUXUXUXUXUXUXUXUXUXUXUXUXUXUXUX7XV ,X7XuXeX5X,X,X,X5XeXuX7X1XV wXUXUXUXUXUXUXUXUXUXUXUXUXUXUXUXUXUXUXUXUXUXUXUX",
"UXUXUXUXUXUXUXUXUXUXUXUXUXUXUXUXUXUXUXUXUXUXUXUXeXB ,X;Xs i n yXwXyXn i s 4X1XB tXUXUXUXUXUXUXUXUXUXUXUXUXUXUXUXUXUXUXUXUXUXUXUX",
"UXUXUXUXUXUXUXUXUXUXUXUXUXUXUXUXUXUXUXUXUXUXUXUX7X3X,X:X>X>X,X,X<X6X2X>X>X>X1X7XwXUXUXUXUXUXUXUXUXUXUXUXUXUXUXUXUXUXUXUXUXUXUXUX",
"UXUXUXUXUXUXUXUXUXUXUXUXUXUXUXUXUXUXUXUXUXUXUXUXUX3X,X:X-X-X>X4X4X9X,X;X;X,X1X7XUXUXUXUXUXUXUXUXUXUXUXUXUXUXUXUXUXUXUXUXUXUXUXUX",
"UXUXUXUXUXUXUXUXUXUXUXUXUXUXUXUXUXUXUXUXUXUXUX    3X<X2X<X7X1X,X1X,X1X7X1X3X4X7X    UXUXUXUXUXUXUXUXUXUXUXUXUXUXUXUXUXUXUXUXUXUX",
"UXUXUXUXUXUXUXUXUXUXUXUXUXUXUXUXUXUXUXUXUXUXUX    eX<X2X<X7X1 < , < 1 7X1X7X4X7X    UXUXUXUXUXUXUXUXUXUXUXUXUXUXUXUXUXUXUXUXUXUX",
"UXUXUXUXUXUXUXUXUXUXUXUXUXUXUXUXUXUX2 2 bXbXvX      <X2X<X5Xf j j j f 5X1X7X4X7X    bX8 8 7 2 2 UXUXUXUXUXUXUXUXUXUXUXUXUXUXUXUX",
"UXUXUXUXUXUXUXUXUXUXUXUXUXUX-.-.-.-.5 5 -.-.:.      eX,X<X,X1 < , < 1 ,X1X3X7X      ,.,.:.-.5 5 -.-.-.-.UXUXUXUXUXUXUXUXUXUXUXUX",
"UXUXUXUXUXUXUXUXUXUXUX-.-.=.=.=.=.1 v v 5 =.=.,.    uX3X,X,X,X2X5X2X,X,X1X7XeX  1.,.,.:.:.1 v v 5 -.-.-.-.-.-.UXUXUXUXUXUXUXUXUX",
"UXUXUXUXUXUXUXUXUX-.-.=.=.=.=.=.=.r n n r =.=.;.,.1.1.uXeX8X8X2X4X6X8XeXeXuX<.1.1.,.:.:.:.r n n r g ;.;.-.-.:.>.>.UXUXUXUXUXUXUX",
"UXUXUXUXUXUXUXUX-.-.=.=.=.=.=.=.=.=.=.=.=.=.=.-.;.,.1.    uXuXeXeXeXuXuXiX  1.<.,.:.;.;.-.-.-.-.-.g -.-.-.;.-.:.:.,.UXUXUXUXUXUX",
"UXUXUXUXUXUXUXUX-.=.=.=.=.=.=.=.=.=.=.=.=.=.=.=.-.h >.,.>.:.>.>.,.<.<.<.<.1.>.>.:.-.-.-.=.=.=.=.=.f -.-.-.-.;.:.:.>.,.UXUXUXUXUX",
"UXUXUXUXh UXUX*.*.*.*.*.=.=.=.=.=.=.=.=.=.=.=.=.h =.-.-.;.>.,.1.1.1.1.1.1.>.;.;.-.=.=.=.=.=.=.=.=.r ;.=.=.=.=.-.-.;.:.:.UXUXUXUX",
"UXUXUXUXUXh *.-.-.:.:.,.,.:.-.=.=.=.=.=.=.=.f f =.=.=.=.-.-.-.<.>.>.-.-.-.-.-.=.=.=.=.=.=.*.*.*.g r >.>.>.>.>.,.,.1.1.:.1.UXUXUX",
"UXUXUXUXUX:.f f ,.,.,.1.1.1.1.:.*.*.*.*.*.d a f =.=.=.=.=.=.-.<.>.>.-.=.=.=.=.=.=.=.*.*.*.*.*.q g r q q 1.1.1.1.1.        UXUXUX",
"UXUXUXUXUXUXf a f f   q q q q q :.*.*.*.d u d *.*.=.=.=.=.=.=.<.>.>.=.=.=.=.=.=.*.*.*.*.*.r.t.t.i r g r.t.t.r.$ G.G.H.K.UXUXUXUX",
"UXUXUXUXUXS.S.f i i f f t.u.e q t.r.d d r d *.*.*.*.*.=.=.=.=.<.>.>.=.=.=.=.=.*.*.*.*.*.p e e y.i r s e e y.p IX$ G.G.K.UXUXUXUX",
"UXUXUXUXUXS.D.F.f i i i a y.e t.r.d d r d *.*.*.*.*.*.*.=.=.=.<.>.>.=.=.=.=.*.*.*.*.*.q t.p p u.p m p e p p t.e y.u.G.K.K.UXUXUX",
"UXUXUXUXS.S.F.q f d r M d a a d d i r i d ;.;.;.;.;.;.;.;.;.;.).).).;.;.;.;.;.;.;.;.*.p e p r p i m y p m y e p y.y.G.H.K.UXUXUX",
"UXUXUXUXS.D.F.q e a d r n M s a i n i d ).).).).).).).).).).).      ).).).).).).).).q e e e y n m W m m y p t.u.e y.u.H.K.UXUXUX",
"UXUXUXUXS.F.q q t.r.d i M E n n W i a d e                                         g g d i p y m b R b m y p p g g y.u.w K.cXUXUX",
"UXUXUXS.H.H.q t.f f a a y n E T n i y d d y d nXnXnXnXnXnXnXMXmXw w nXnXg a i i r r r r m M m W R T R W m u m p p s g g j cXUXUX",
"UXUXUXH.F.F.d d p p y y y n T T n M a f f y.w MXq q q q q q w e w w MXw nXnXnXnXMXMXg d i y y m b R b m y p p p e u.w w K.UXUXUX",
"UXUXUXH.F.G.q u.y.y.u.a y W n n E n i     u.q MXw w w w w w w e w w MXw w w w w w MXe y.u.p y y m W m y m y e e e w w     UXUXUX",
"UXUXUXH.H.H.q e e e d a n i y y i r r y.u.mXq q MXMXMXMXmXmXmXe MXMXMXMXw e e e e w   e e p p p a i p p y y p e e w w     UXUXUX",
"UXUXUXH.H.J.J.e e e a r a d d d d i r d e w nX0 0 0 0 nXnXnXnXnXq q q q nXnXnXnXnXe e e p t.e q d r p q u.p p e w w H.H.  UXUXUX",
"UXUXUXUXJ.J.F.q e e a a d   u.t.  d d r d e nX0 $ bXbX$ $ $ $ vXvX0 0 0 vXvX$ vX0 0 mXw   p y.u.d r s u.u.e e e w H.H.K.UXUXUXUX",
"UXUXUXUXJ.J.F.F.e f u.y.y.u.e u.y.u.e f d d e e e e w q q q nXnXnXnXq q q w w             e e e g i s e e e K.  H.K.K.UXUXUXUXUX",
"UXUXUXUXUXJ.F.F.h yXe e u.y.e e e e UX# bXf f mXmXbXbXbXe   e e e e e e e                   bXe g i f e pXiXK.      UXUXUXUXUXUX",
"UXUXUXUXUXUXF.F.6X6XyXe e e e e UXUX# bX4 # # f 4 mXmXmXbXbX            ).0 7 7 7 7 6 6 6 6 0 # f i f rXuXpXK.K.K.UXUXUXUXUXUXUX",
"UXUXUXUXUXUXF.F.wX6X0X0X0XeXUXUXUX# bX# 1 1 1 # h 4 bX0 mXe bX0 e e   mX7 7 0 mXmXmXmXmXmXmXbX# 0Xi f rXuXK.K.UXUXUXUXUXUXUXUXUX",
"UXUXUXUXUXUXUXF.S.6X0X0X0XeXUXUX# bX# 1 1 1 1 1 # 4 4 5 8 0 e 0 e e mX0 mX0 8 7 6 6 6 6 6 7 mXmXmXi w e e e UXUXUXUXUXUXUXUXUXUX",
"UXUXUXUXUXUXUXUXUXUXUXUXUXUXUXUX4 # 1 1 1 1 1 1 # 4 4 5 8 $ 0 e     0 mX0 bX8 7 6 6 6 6 6 7 8 bX0 i q UXUXUXUXUXUXUXUXUXUXUXUXUX",
"UXUXUXUXUXUXUXUXUXUXUXUXUXUXUX5 4 # 1 1 1 1 1 1 # 4 4 5 8 $ 0 0     mXq 0 bX8 7 6 6 6 6 7 7 8 bX0 i q UXUXUXUXUXUXUXUXUXUXUXUXUX",
"UXUXUXUXUXUXUXUXUXUXUXUXUXUXUX5 # # 1 1 1 1 1 # # 4 5 8 8 $ $ 0 UXUXw q 0 bX8 7 7 7 6 6 7 7 8 bX0 q w UXUXUXUXUXUXUXUXUXUXUXUXUX",
"UXUXUXUXUXUXUXUXUXUXUXUXUXUX5 4 # 1 1 1 1 1 1 # 4 4 5 8 8 $ mXq UXUXq mXq bX8 8 7 7 7 7 7 8 8 bX0 q w UXUXUXUXUXUXUXUXUXUXUXUXUX",
"UXUXUXUXUXUXUXUXUXUXUXUXUXUX5 4 # 1 1 1 1 1 # # 4 5 5 8 $ $ w UXUXUXw q mX$ bX8 8 7 7 7 8 8 bXbX0 q e mXUXUXUXUXUXUXUXUXUXUXUXUX",
"UXUXUXUXUXUXUXUXUXUXUXUXUXUX5 4 # 1 1 1 1 1 # 4 4 5 8 8 $ 0 0 UXUXUXUXq q $ bXbX8 8 8 8 8 bX$ $ 0 q q mXUXUXUXUXUXUXUXUXUXUXUXUX",
"UXUXUXUXUXUXUXUXUXUXUXUXUXUX5 4 # 1 1 1 1 # # 4 6 8 8 $ 0 $ UXUXUXUXUXw q vX$ $ bXbXbXbXbXbX$ vX0 q e mXmXUXUXUXUXUXUXUXUXUXUXUX",
"UXUXUXUXUXUXUXUXUXUXUXUXUXUXq q $ 7 7 7 $ 0 0 0 bX8 $ $ 0 mXUXUXUXUXUXw q q vX$ $ $ $ $ $ $ $ vX0 q e mXmXUXUXUXUXUXUXUXUXUXUXUX",
"UXUXUXUXUXUXUXUXUXUXUXUXUXq q 4 # 1 1 1 # 4 0 0 w w 0 0 q UXUXUXUXUXUXUX0 e q vXvXvXvXvXvXvXvX0 q e mXmXe UXUXUXUXUXUXUXUXUXUXUX",
"UXUXUXUXUXUXUXUXUXUXUXUX$ 8 4 4 4 # # # 4 4 8 vX0 w w 0 UXUXUXUXUXUXUXUX0 # e q q 0 0 0 0 q q q e mXmX  e UXUXUXUXUXUXUXUXUXUXUX",
"UXUXUXUXUXUXUXUXUXUXUXUX$ 8 8 4 4 4 4 4 4 8 $ vX0 w w UXUXUXUXUXUXUXUXUXUX0 # e e e e e e e e e mX0 mX  e UXUXUXUXUXUXUXUXUXUXUX",
"UXUXUXUXUXUXUXUXUXUXUXUX$ 8 8 8 8 8 8 8 8 8 $ vX0 w UXUXUXUXUXUXUXUXUXUXUXUX4 7 mXw         mX0 0 mX    e UXUXUXUXUXUXUXUXUXUXUX",
"UXUXUXUXUXUXUXUXUXUXUXUXUX                          UXUXUXUXUXUXUXUXUXUXUXUXUX# 7 0 0 0 0 0 0 0 mX      UXUXUXUXUXUXUXUXUXUXUXUX",
"UXUXUXUXUXUXUXUXUXUXUXUXq q q q mXmXw w L.L.L.    UXUXUXUXUXUXUXUXUXUXUXUXUXUXUX# 7 0 mXmX            e UXUXUXUXUXUXUXUXUXUXUXUX",
"UXUXUXUXUXUXUXUXUXUXUXUXL.L.L.L.L.L.L.e e     e e UXUXUXUXUXUXUXUXUXUXUXUXUXUXUXUXmXw                 UXUXUXUXUXUXUXUXUXUXUXUXUX",
"UXUXUXUXUXUXUXUXUXUXUXUXq q q q q w w L.L.L.e   UXUXUXUXUXUXUXUXUXUXUXUXUXUXUXUXUXUXUXw e           e UXUXUXUXUXUXUXUXUXUXUXUXUX",
"UXUXUXUXUXUXUXUXUXUXUXUXq q q q w w L.L.L.$ 0 UXUXUXUXUXUXUXUXUXUXUXUXUXUXUXUXUXUXUXUXw             e e UXUXUXUXUXUXUXUXUXUXUXUX",
"UXUXUXUXUXUXUXUXUXUXUXUXq q q w w L.L.e e 0 q UXUXUXUXUXUXUXUXUXUXUXUXUXUXUXUXUXUXUXUXe e e e e       e UXUXUXUXUXUXUXUXUXUXUXUX",
"UXUXUXUXUXUXUXUXUXUXUXUXL.L.L.L.L.L.L.e e e UXUXUXUXUXUXUXUXUXUXUXUXUXUXUXUXUXUXUXUXnXnXw w w         e UXUXUXUXUXUXUXUXUXUXUXUX",
"UXUXUXUXUXUXUXUXUXUXUXL.nXnXnXnXnXnXq L.L.UXUXUXUXUXUXUXUXUXUXUXUXUXUXUXUXUXUXUXUXUXw w e e e e e e e e UXUXUXUXUXUXUXUXUXUXUXUX",
"UXUXUXUXUXUXUXUXUXUXvXvXq q q q w w w nXw e UXUXUXUXUXUXUXUXUXUXUXUXUXUXUXUXUXUXUXUXe e e e e e e e e e w w w w q q q q 0 0 8 UX",
"UXUXUXUXUXUXUXUXUXUXvXq vXvXvXvXvXnXnXnXw e UXUXUXUXUXUX8 8 8 8 $ $ $ 0 0 0 0 q q q q q q w w w w w w w w w w w q 0 0 $ $ 8 UXUX",
"UXUXUXUXUXUXUXUXUXUXvXvXq q w w w nXnXw mXe 8 $ 0 0 0 0 q q w w w w w w w w w w w w w w w w w w w w w w w w q q 0 $ $ 8 8 8 UXUX",
"UXUXUXUXUXUXUXUXUXUXvXq vXvXnXnXnXw nXmXw w w w w w q q q q q q q 0 0 0 $ 8 8 UXUXUXUXUXUXUXUXUXUXUXUXUXUXUXUXUXUXUXUXUXUXUXUXUX"
};
