/* XPM */
static char *_c83b1f8c7824848ff757c7aca6b3e182TdRfr5S5FXUfdYY[] = {
/* columns rows colors chars-per-pixel */
"64 64 256 2 ",
"   c black",
".  c #0000A8",
"X  c #00A800",
"o  c #00A8A8",
"O  c #A80000",
"+  c #A800A8",
"@  c #A85400",
"#  c gray66",
"$  c gray33",
"%  c #5454FC",
"&  c #54FC54",
"*  c #54FCFC",
"=  c #FC5454",
"-  c #FC54FC",
";  c #FCFC54",
":  c gray99",
">  c #ECECEC",
",  c gainsboro",
"<  c #D0D0D0",
"1  c #C0C0C0",
"2  c #B4B4B4",
"3  c gray66",
"4  c #989898",
"5  c gray55",
"6  c #7C7C7C",
"7  c gray44",
"8  c #646464",
"9  c gray33",
"0  c #484848",
"q  c gray22",
"w  c #2C2C2C",
"e  c #202020",
"r  c #FC0000",
"t  c #EC0000",
"y  c #E00000",
"u  c #D40000",
"i  c #C80000",
"p  c #BC0000",
"a  c #B00000",
"s  c #A40000",
"d  c #980000",
"f  c #880000",
"g  c #7C0000",
"h  c #700000",
"j  c #640000",
"k  c #580000",
"l  c #4C0000",
"z  c #400000",
"x  c #FCD8D8",
"c  c #FCB8B8",
"v  c #FC9C9C",
"b  c #FC7C7C",
"n  c #FC5C5C",
"m  c #FC4040",
"M  c #FC2020",
"N  c #FC0000",
"B  c #FCA85C",
"V  c #FC9840",
"C  c #FC8820",
"Z  c #FC7800",
"A  c #E46C00",
"S  c #CC6000",
"D  c #B45400",
"F  c #9C4C00",
"G  c #FCFCD8",
"H  c #FCFCB8",
"J  c #FCFC9C",
"K  c #FCFC7C",
"L  c #FCF85C",
"P  c #FCF440",
"I  c #FCF420",
"U  c #FCF400",
"Y  c #E4D800",
"T  c #CCC400",
"R  c #B4AC00",
"E  c #9C9C00",
"W  c #848400",
"Q  c #706C00",
"!  c #585400",
"~  c #404000",
"^  c #D0FC5C",
"/  c #C4FC40",
"(  c #B4FC20",
")  c #A0FC00",
"_  c #90E400",
"`  c #80CC00",
"'  c #74B400",
"]  c #609C00",
"[  c #D8FCD8",
"{  c #BCFCB8",
"}  c #9CFC9C",
"|  c #80FC7C",
" . c #60FC5C",
".. c #40FC40",
"X. c #20FC20",
"o. c #00FC00",
"O. c #00FC00",
"+. c #00EC00",
"@. c #00E000",
"#. c #00D400",
"$. c #04C800",
"%. c #04BC00",
"&. c #04B000",
"*. c #04A400",
"=. c #049800",
"-. c #048800",
";. c #047C00",
":. c #047000",
">. c #046400",
",. c #045800",
"<. c #044C00",
"1. c #044000",
"2. c #D8FCFC",
"3. c #B8FCFC",
"4. c #9CFCFC",
"5. c #7CFCF8",
"6. c #5CFCFC",
"7. c #40FCFC",
"8. c #20FCFC",
"9. c #00FCFC",
"0. c #00E4E4",
"q. c #00CCCC",
"w. c #00B4B4",
"e. c #009C9C",
"r. c #008484",
"t. c #007070",
"y. c #005858",
"u. c #004040",
"i. c #5CBCFC",
"p. c #40B0FC",
"a. c #20A8FC",
"s. c #009CFC",
"d. c #008CE4",
"f. c #007CCC",
"g. c #006CB4",
"h. c #005C9C",
"j. c #D8D8FC",
"k. c #B8BCFC",
"l. c #9C9CFC",
"z. c #7C80FC",
"x. c #5C60FC",
"c. c #4040FC",
"v. c #2024FC",
"b. c #0004FC",
"n. c #0000FC",
"m. c #0000EC",
"M. c #0000E0",
"N. c #0000D4",
"B. c #0000C8",
"V. c #0000BC",
"C. c #0000B0",
"Z. c #0000A4",
"A. c #000098",
"S. c #000088",
"D. c #00007C",
"F. c #000070",
"G. c #000064",
"H. c #000058",
"J. c #00004C",
"K. c #000040",
"L. c #282828",
"P. c #FCE034",
"I. c #FCD424",
"U. c #FCCC18",
"Y. c #FCC008",
"T. c #FCB400",
"R. c #B420FC",
"E. c #A800FC",
"W. c #9800E4",
"Q. c #8000CC",
"!. c #7400B4",
"~. c #60009C",
"^. c #500084",
"/. c #440070",
"(. c #340058",
"). c #280040",
"_. c #FCD8FC",
"`. c #FCB8FC",
"'. c #FC9CFC",
"]. c #FC7CFC",
"[. c #FC5CFC",
"{. c #FC40FC",
"}. c #FC20FC",
"|. c #FC00FC",
" X c #E000E4",
".X c #C800CC",
"XX c #B400B4",
"oX c #9C009C",
"OX c #840084",
"+X c #6C0070",
"@X c #580058",
"#X c #400040",
"$X c #FCE8DC",
"%X c #FCE0D0",
"&X c #FCD8C4",
"*X c #FCD4BC",
"=X c #FCCCB0",
"-X c #FCC4A4",
";X c #FCBC9C",
":X c #FCB890",
">X c #FCB080",
",X c #FCA470",
"<X c #FC9C60",
"1X c #F0945C",
"2X c #E88C58",
"3X c #DC8854",
"4X c #D08050",
"5X c #C87C4C",
"6X c #BC7848",
"7X c #B47044",
"8X c #A86840",
"9X c #A0643C",
"0X c #9C6038",
"qX c #905C34",
"wX c #885830",
"eX c #80502C",
"rX c #744C28",
"tX c #6C4824",
"yX c #5C4020",
"uX c #543C1C",
"iX c #483818",
"pX c #403018",
"aX c #382C14",
"sX c #28200C",
"dX c #600064",
"fX c #006464",
"gX c #006060",
"hX c #00001C",
"jX c #00002C",
"kX c #302410",
"lX c #480048",
"zX c #500050",
"xX c #000034",
"cX c gray11",
"vX c #4C4C4C",
"bX c gray36",
"nX c gray25",
"mX c gray19",
"MX c #343434",
"NX c #D8F4F4",
"BX c #B8E8E8",
"VX c #9CDCDC",
"CX c #74C8C8",
"ZX c #48C0C0",
"AX c #20B4B4",
"SX c #20B0B0",
"DX c #00A4A4",
"FX c #009898",
"GX c #008C8C",
"HX c #008484",
"JX c #007C7C",
"KX c #007878",
"LX c #007474",
"PX c #007070",
"IX c #006C6C",
"UX c #980088",
/* pixels */
"UXUXUXUXUXUXUXUXUXUXUXUXUXUXUXUXUXUXUXUXUXUXUXUXUXUXnX0 8 7 7 8 8 8 $ $ $ 0 nXUXUXUXUXUXUXUXUXUXUXUXUXUXUXUXUXUXUXUXUXUXUXUXUXUX",
"UXUXUXUXUXUXUXUXUXUXUXUXUXUXUXUXUXUXUXUXUXUXUXUX$ nX0 7 7 8 8 8 8 8 8 8 $ $ 0 0 0 UXUXUXUXUXUXUXUXUXUXUXUXUXUXUXUXUXUXUXUXUXUXUX",
"UXUXUXUXUXUXUXUXUXUXUXUXUXUXUXUXUXUXUXUXUXUXUXUX$ 6 # # 6 6 7 7 7 7 7 7 7 $ $ $ $ UXUXUXUXUXUXUXUXUXUXUXUXUXUXUXUXUXUXUXUXUXUXUX",
"UXUXUXUXUXUXUXUXUXUXUXUXUXUXUXUXUXUXUXUXUXUXUX$ 7 $ $ $ $ # : : : : : # $ $ q q $ q UXUXUXUXUXUXUXUXUXUXUXUXUXUXUXUXUXUXUXUXUXUX",
"UXUXUXUXUXUXUXUXUXUXUXUXUXUXUXUXUXUXUXUXUXUXUXq   $           # # #             e q UXUXUXUXUXUXUXUXUXUXUXUXUXUXUXUXUXUXUXUXUXUX",
"UXUXUXUXUXUXUXUXUXUXUXUXUXUXUXUXUXUXUXUXUXUXUXq $ 7 1 1 # # 6 6 6 $ $ $ q q q q   q UXUXUXUXUXUXUXUXUXUXUXUXUXUXUXUXUXUXUXUXUXUX",
"UXUXUXUXUXUXUXUXUXUXUXUXUXUXUXUXUXUXUXUXUXUXUXUXq q $ $ $ $ $ $ $ 0 0 0 q q q q q UXUXUXUXUXUXUXUXUXUXUXUXUXUXUXUXUXUXUXUXUXUXUX",
"UXUXUXUXUXUXUXUXUXUXUXUXUXUXUXUXUXUXUXUXUXUXUXUXUXC ,X7XuXeX5X,X,X,X5XeXuX7X1XC UXUXUXUXUXUXUXUXUXUXUXUXUXUXUXUXUXUXUXUXUXUXUXUX",
"UXUXUXUXUXUXUXUXUXUXUXUXUXUXUXUXUXUXUXUXUXUXUXUX7XC ,X;X1 F.$ yXwXyX$ F.4 4X1XC wXUXUXUXUXUXUXUXUXUXUXUXUXUXUXUXUXUXUXUXUXUXUXUX",
"UXUXUXUXUXUXUXUXUXUXUXUXUXUXUXUXUXUXUXUXUXUXUXUX7XV ,X:X>X>X,X,X<X6X2X>X>X>X1XV wXUXUXUXUXUXUXUXUXUXUXUXUXUXUXUXUXUXUXUXUXUXUXUX",
"UXUXUXUXUXUXUXUXUXUXUXUXUXUXUXUXUXUXUXUXUXUXUXUXeXB ,X:X-X-X>X4X4X9X,X;X;X,X1XB tXUXUXUXUXUXUXUXUXUXUXUXUXUXUXUXUXUXUXUXUXUXUXUX",
"UXUXUXUXUXUXUXUXUXUXUXUXUXUXUXUXUXUXUXUXUXUXUXUX7X3X<X2X<X7X1X,X1X,X1X7X1X3X4X7XwXUXUXUXUXUXUXUXUXUXUXUXUXUXUXUXUXUXUXUXUXUXUXUX",
"UXUXUXUXUXUXUXUXUXUXUXUXUXUXUXUXUXUXUXUXUXUXUXUX  3X<X2X<X7X1 < , < 1 7X1X7X4X7X  UXUXUXUXUXUXUXUXUXUXUXUXUXUXUXUXUXUXUXUXUXUXUX",
"UXUXUXUXUXUXUXUXUXUXUXUXUXUXUXUXUXUXUXUXUXUXUX    3X<X2X<X5X1 < , < 1 5X1X7X4X7X    UXUXUXUXUXUXUXUXUXUXUXUXUXUXUXUXUXUXUXUXUXUX",
"UXUXUXUXUXUXUXUXUXUXUXUXUXUXUXUXUXUXUXUXUXUXUX      <X,X<X,X<X,X,X,X<X,X1X3X7X      UXUXUXUXUXUXUXUXUXUXUXUXUXUXUXUXUXUXUXUXUXUX",
"UXUXUXUXUXUXUXUXUXUXUXUXUXUXUXUXUXUXUX-.-.,.,.        3X,X,X,X2X5X2X,X,X1X7XeX      1.1.:.:.:.UXUXUXUXUXUXUXUXUXUXUXUXUXUXUXUXUX",
"UXUXUXUXUXUXUXUXUXUXUXUXUXUXUX-.-.-.-.-.5 5 ,.        0X7X8X0XqXqXqXeXeXeXtXuX      1.:.:.:.6 6 :.:.:.UXUXUXUXUXUXUXUXUXUXUXUXUX",
"UXUXUXUXUXUXUXUXUXUXUXUXUX-.-.=.=.=.=.1 # # 5 ,.      <.5X7X7X5X7X7X8XeXeXeX<.1.1.,.,.,.:.# 5 6 $ :.:.:.,.UXUXUXUXUXUXUXUXUXUXUX",
"UXUXUXUXUXUXUXUXUXUXUX-.-.=.=.=.=.=.-.6 7 7 $ :.,.,.1.:.>.<.8X2X4X6X8XeX<.<.1.<.,.,.,.:.;.6 7 $ q :.:.:.>.,.,.UXUXUXUXUXUXUXUXUX",
"UXUXUXUXUXUXUXUXUXUX-.-.=.=.=.=.=.-.-.-.-.;.;.;.:.:.>.,.>.:.>.>.,.<.<.<.<.1.>.>.:.:.;.;.;.;.;.;.:.:.:.:.:.>.,.,.UXUXUXUXUXUXUXUX",
"UXUXUXUXUXUXUXUXUX-.-.=.=.=.=.=.-.-.-.;.;.;.;.;.;.;.;.;.;.>.,.1.1.1.1.1.1.>.;.;.;.;.;.;.;.;.;.;.:.:.:.:.:.>.>.,.,.UXUXUXUXUXUXUX",
"UXUXUXUXUXUXUX*.*.&.%.&.*.*.*.-.-.;.;.;.;.;.;.;.;.;.;.;.;.;.;.;.;.<.>.>.-.;.;.;.;.;.;.;.;.;.;.:.:.:.:.-.-.-.:.:.>.,.1.UXUXUXUXUX",
"UXUXUXUXUXUXUX:.:.>.,.,.,.1.1.1.1.1.>.;.;.;.;.;.;.;.;.;.;.;.;.;.;.<.>.>.-.;.;.;.;.;.;.;.;.;.:.:.>.1.1.1.1.,.,.<.<.1.1.UXUXUXUXUX",
"UXUXUXUXUXUX4 D.A.C.A.A.S.F.G.    1.<.<.>.;.:.:.:.:.:.:.:.:.:.:.:.>.<.>.;.-.:.:.:.:.:.:.:.>.>.>.<.1.1.            UXUXUXUXUXUXUX",
"UXUXUXUXUXUXD.G.H.G.F.F.G.H.K.H.    1.1.<.<.>.:.:.:.:.:.:.:.:.:.:.>.<.>.:.-.:.:.:.:.:.:.>.>.>.<.1.              K.K.UXUXUXUXUXUX",
"UXUXUXUXUXUXG.G.D.A.S.D.F.G.J.H.mX      1.<.<.>.:.:.:.:.:.:.:.:.:.>.<.>.:.-.:.:.:.:.:.>.>.>.<.1.  K.G.F.D.D.F.F.G.  UXUXUXUXUXUX",
"UXUXUXUXUXUXK.7 D.A.A.S.D.G.J.K.J.        1.<.<.>.:.:.:.:.:.:.:.:.>.<.>.:.-.:.:.:.:.:.>.>.<.1.    H.K.K.K.K.K.    K.UXUXUXUXUXUX",
"UXUXUXUXUXUX7 0 D.Z.A.S.D.G.J.K.K.          1.1.1.1.1.1.1.1.1.1.1.1.      1.1.1.1.1.1.1.1.1.    K.H.G.F.F.F.G.H.J.K.UXUXUXUXUXUX",
"UXUXUXUXUXUX0 D.S.Z.Z.S.D.F.J.K.K.                                                              K.H.G.F.F.F.G.H.K.UXUXUXUXUXUXUX",
"UXUXUXUXUXUXUX7 S.Z.Z.S.D.F.J.K.K.          e e e e e e e e e e e e e e e e e e e e e e e e     K.H.G.F.F.G.H.J.K.UXUXUXUXUXUXUX",
"UXUXUXUXUXUX7 0 A.Z.Z.A.S.F.J.K.K.          e e w nXq q q q q MXMXmXw w nXq MXMXMXMXMXw e e     K.G.G.F.G.G.H.J.K.UXUXUXUXUXUXUX",
"UXUXUXUXUXUX0 D.A.Z.Z.A.S.F.J.K.K.UX        e e w MXw w w w w w w e w w MXw w w w w w e e           G.G.G.H.J.K.UXUXUXUXUXUXUXUX",
"UXUXUXUXUXUXUXe e e e e e t.GXGXGXGXIXUX      e e w e e e e e e e e w w w e e e e               K.K.H.H.H.J.K.K.UXUXUXUXUXUXUXUX",
"UXUXUXUXUXUXH.D.e H.D.D.t.FXr.DXDXGXt.IXe e e e e e e e w w w w w w w w w w w w w e e e e     K.K.K.      K.K.K.UXUXUXUXUXUXUXUX",
"UXUXUXUXUXUXJ.e H.F.D.u.r.GXr.DXGXt.y.y.u.e e e w q q nX0 0 0 0 0 0 0 nXnXq q MXMXw w e e e   K.K.K.K.K.y.IXIXIXIXy.UXUXUXUXUXUX",
"UXUXUXUXUXUXe J.H.F.F.y.t.r.r.DXGXt.t.y.u.e e e e e e e w nXnX0 0 nXnXnXq w e                 K.K.K.K.y.y.IXLXLXIXy.y.UXUXUXUXUX",
"UXUXUXUXUXUXJ.J.H.G.G.y.t.r.r.DXFXJXt.y.y.u.        e e     w MXMXw w e     7 1 1 1 1 4 4 7 vX  K.K.u.y.y.IXIXy.y.y.y.u.UXUXUXUX",
"UXUXUXUXUXUXJ.J.H.H.H.y.t.r.r.FXDXJXt.y.y.u.6 6 bXq q q e e           mX4 # 1 # 4 4 7 $ $ 4 4 vXK.K.u.y.y.y.IXIXy.y.u.u.UXUXUXUX",
"UXUXUXUXUXUXUXJ.J.H.H.u.y.t.r.GXDXJXt.IXu.u.w w w w w w q q e e     mX4 bXbX7 4 1 # 4 7 7 bX$ 4   K.u.y.y.y.GXIXu.u.w e UXUXUXUX",
"UXUXUXUXUXUXUXJ.J.J.J.J.y.t.r.r.DXJXt.IXu.y.4 6 bXbX$ 0 e e e e     4 bX7 4 # 1 1 1 # 4 6 7 bXmXmXw MXu.y.IXy.u.u.u.w e UXUXUXUX",
"UXUXUXUXUXUXUXUXJ.J.J.J.y.t.KXKXt.y.y.y.u.y.u.6 6 bX$ $ 0 q e e     0 bX7 4 # 1 1 1 # 4 6 7 bX0 mXw mXu.u.IXu.u.u.w   UXUXUXUXUX",
"UXUXUXUXUXUXUXUXUXJ.J.J.y.t.KXt.y.w w w w u.u.6 6 bX$ $ vX0 q e     0 bX7 4 # 1 1 1 # 4 6 7 bX0 mXw w MXy.u.u.u.w e   UXUXUXUXUX",
"UXUXUXUXUXUXUXUXUXUXUXJ.u.y.t.w w u.u.e u.w u.6 6 bX$ $ vX0 q e   6 0 bX7 4 # 1 1 1 # 4 5 7 bX0 mX8 w mXu.MXMXw e   UXUXUXUXUXUX",
"UXUXUXUXUXUXUXUXUXUXUXUXu.y.w u.u.t.e.r.u.u.w 6 6 bX$ $ vX0 q e e 8 0 bX7 4 # 1 1 1 # 4 5 7 bX0 mX0 w MXMXMXw w e   UXUXUXUXUXUX",
"UXUXUXUXUXUXUXUXUXUXUXUXUXw w t.r.q.e.r.u.y.w 6 6 bX$ $ vX0 q e e mX0 bX7 4 # 1 1 1 # 4 5 7 bX0 mXw MXMXMXMXw e   UXUXUXUXUXUXUX",
"UXUXUXUXUXUXUXUXUXUXUXUXUXw u.r.e.r.q.e.y.u.u.6 6 bX$ $ vX0 q e   mX0 bX7 4 # 1 1 1 # 4 5 7 bX0 mXw w MXMXw e e   UXUXUXUXUXUXUX",
"UXUXUXUXUXUXUXUXUXUXUXUXUXw y.r.e.r.q.e.t.u.u.6 6 bX$ $ vX0 q e   6 0 bX7 4 # 1 1 1 # 4 4 7 bX0 mX8 u.w e e     UXUXUXUXUXUXUXUX",
"UXUXUXUXUXUXUXUXUXUXUXUXUXUXy.t.e.t.q.e.t.u.y.u.6 bX$ $ vX0 q e   8 0 bX7 4 $ 8 6 8 $ vX0 0 bX0 mX0 u.u.w e w UXUXUXUXUXUXUXUXUX",
"UXUXUXUXUXUXUXUXUXUXUXUXUXUXUXy.r.e.r.q.r.t.u.u.bXbX$ $ vX0 q e   mX0 0 0 $ # # 1 1 # 4 5 6 0 nXL.y.u.w e e w UXUXUXUXUXUXUXUXUX",
"UXUXUXUXUXUXUXUXUXUXUXUXUXUXUXy.t.t.w w w w e e u.$ $ vX0 q q e   mXmXbX4 # 4 4 # # # 4 5 6 bX$ q u.u.w e w UXUXUXUXUXUXUXUXUXUX",
"UXUXUXUXUXUXUXUXUXUXUXUXUXUXUXy.t.w w e e e e e e 0 0 0 0 q     e   mXbXbX7 4 4 # # # 4 5 6 bX$ q u.w e e e UXUXUXUXUXUXUXUXUXUX",
"UXUXUXUXUXUXUXUXUXUXUXUXUXUXUXy.w w w y.u.u.u.e e e             e e mXbXbX7 4 4 # # # 4 5 6 bX$ q e e e e   UXUXUXUXUXUXUXUXUXUX",
"UXUXUXUXUXUXUXUXUXUXUXUXUXUXUXUXw e y.u.e e u.u.e e             e UX                                      UXUXUXUXUXUXUXUXUXUXUX",
"UXUXUXUXUXUXUXUXUXUXUXUXUXUXUXUXe e y.u.e u.e q e e               UXw w mXq vXvXvXq q q q mXw L.        UXUXUXUXUXUXUXUXUXUXUXUX",
"UXUXUXUXUXUXUXUXUXUXUXUXUXUXUXUXe e u.e e e e u.e                 e e L.L.L.L.L.L.L.e e e       UXUXUXUXUXUXUXUXUXUXUXUXUXUXUXUX",
"UXUXUXUXUXUXUXUXUXUXUXUXUXUXUXUXUXe y.u.e u.u.e e e             e e w w mXq 0 vX0 nXmXw L.L.L.e UXUXUXUXUXUXUXUXUXUXUXUXUXUXUXUX",
"UXUXUXUXUXUXUXUXUXUXUXUXUXUXUXUXUXUXUXu.u.u.UXvXw w e e e       e e w 4 mXq 0 vX0 nXmXw L.L.L.$ UXUXUXUXUXUXUXUXUXUXUXUXUXUXUXUX",
"UXUXUXUXUXUXUXUXUXUXUXUXUXUXUXUXUXUXUXUXUXUXUXvXvX              e e UX8 mXq q vX0 nXmXw L.L.e w UXUXUXUXUXUXUXUXUXUXUXUXUXUXUXUX",
"UXUXUXUXUXUXUXUXUXUXUXUXUXUXUXUXUXUXUXUXUXUXvXq w w w mXw L.e e e e UXw mXL.L.L.L.L.L.L.e e e UXUXUXUXUXUXUXUXUXUXUXUXUXUXUXUXUX",
"UXUXUXUXUXUXUXUXUXUXUXUXUXUXUXUXUXUXUXUXUXUXvXvXnXmXmXw mXw L.e e 0 0 0 L.nX$ $ $ nXnXnXq q L.0 0 0 0 0 0 0 0 0 $ $ 8 UXUXUXUXUX",
"UXUXUXUXUXUXUXUXUXUXUXUXUXUXUXUXUXUX8 8 8 8 8 $ $ $ 0 0 0 0 q q w w w vXbXnXvXvXnXw w w w w mXmXq q q q q q q 0 0 $ $ 8 8 UXUXUX",
"UXUXUXUXUXUXUXUXUXUXUXUXUXUXUXUXUXUXUXUXUXUXUXUXUX8 8 8 $ $ 0 0 q w vXvXnXbXbXbXbXvXnXnXq mXw mXw w w w q q 0 0 0 $ $ 8 8 8 UXUX",
"UXUXUXUXUXUXUXUXUXUXUXUXUXUXUXUXUXUXUXUXUXUXUXUXUXUXUXUX$ $ $ $ 0 0 nXvXbXbXvXvXnXnXw w w w mXmXw w q q 0 0 0 0 $ $ 8 8 8 8 UXUX",
"UXUXUXUXUXUXUXUXUXUXUXUXUXUXUXUXUXUXUXUXUXUXUXUXUXUXUXUXUXUXUXUX$ $ vXvXvXvXvXnXvXvXvX0 0 nXw mXq q 0 0 0 0 0 $ $ 8 8 UXUXUXUXUX"
};
