/* XPM */
static char *b90a595fd08a421eab46b0d538aad5b57ha2fulZwdMyAIMy[] = {
/* columns rows colors chars-per-pixel */
"41 56 94 2 ",
"   c black",
".  c #010101",
"X  c #020202",
"o  c gray1",
"O  c #040404",
"+  c gray2",
"@  c #060606",
"#  c #070707",
"$  c gray3",
"%  c #090909",
"&  c gray4",
"*  c gray9",
"=  c #181818",
"-  c #191919",
";  c gray10",
":  c #1B1B1B",
">  c gray11",
",  c #1D1D1D",
"<  c #1E1E1E",
"1  c gray12",
"2  c #202020",
"3  c gray13",
"4  c #222222",
"5  c #232323",
"6  c gray14",
"7  c #252525",
"8  c gray15",
"9  c #272727",
"0  c #282828",
"q  c gray16",
"w  c #2A2A2A",
"e  c gray17",
"r  c #2C2C2C",
"t  c #2D2D2D",
"y  c gray18",
"u  c #2F2F2F",
"i  c gray19",
"p  c #313131",
"a  c #323232",
"s  c gray20",
"d  c #343434",
"f  c #353535",
"g  c gray21",
"h  c #373737",
"j  c gray22",
"k  c #393939",
"l  c #3A3A3A",
"z  c gray23",
"x  c #3C3C3C",
"c  c gray24",
"v  c #3E3E3E",
"b  c #3F3F3F",
"n  c gray25",
"m  c #414141",
"M  c gray26",
"N  c #434343",
"B  c #444444",
"V  c #464646",
"C  c #494949",
"Z  c gray29",
"A  c #4B4B4B",
"S  c #4C4C4C",
"D  c gray30",
"F  c gray31",
"G  c #515151",
"H  c gray32",
"J  c #535353",
"K  c gray33",
"L  c #555555",
"P  c #565656",
"I  c gray34",
"U  c #585858",
"Y  c gray35",
"T  c #5A5A5A",
"R  c gray36",
"E  c #5F5F5F",
"W  c #606060",
"Q  c #626262",
"!  c gray39",
"~  c #646464",
"^  c #656565",
"/  c gray40",
"(  c #676767",
")  c #686868",
"_  c #727272",
"`  c #767676",
"'  c #898989",
"]  c gray54",
"[  c #929292",
"{  c #939393",
"}  c #959595",
"|  c #979797",
" . c #9B9B9B",
".. c gray62",
/* pixels */
". . . . . . . . . . . . . @ . . @ . @ . . . . . . . . $ . . . . . . . . . @ . . . ",
". n s k k s k k k t n k k f k s f k s s k k f c k k f s c f f c k k k c f k k f . ",
". k } ~ c k k k c  .W k s k c k ..R n f n k k } W k k V s f  .W s c f f c [ L k . ",
". f G = f c s k t ~ > k f k s s W > s c s f s ~ > f f f k f W 2 c s f n t T > k . ",
". c k k f f n s k c f f f k c s k c f k c f f k n f k k k f f k f k k f k k f s . ",
". s f f s c f k c s k f c f f c f k f k c f f k s c k s f k k k f k c f c s k f . ",
". k k k c f k k f k k c . . . . . $ @ . . $ . @ . @ . . $ . f f c f f f t k 0 s . ",
". s t s t k k f k k k f . k k f k f f c k s c f k f k k f . k s t t s f t t f t . ",
". 7 f s t s t s t s t s . s . . . c f . . . . k s . . . s . s t s 0 f t t f t t . ",
". k 7 s k 0 s s t s t s . t . . @ R f . . @ . W t . . . t . t s t s s t s s s f . ",
". t ' T t s f 0 t s t s . s . . . ~ s . . . . ) s . . . s . s t s s s t s ' L t . ",
". f T = 0 s s s s s t t . s . . . W t @ . . . ~ t . . . t . s s s 0 t k t L = f . ",
". t t f s t f s t s t s . s . . . ~ s . @ . . W t . . . s . s t s 0 s t t t k 0 . ",
"@ s t t s f 7 s t s t s . t . . . L t . . . . G s . . . s . s t s k f 0 k 7 s s . ",
". f s 0 f t t s t s t t . s . . . F f @ . . @ F t . . . s . s t t 7 s f t k t t . ",
". s t f 0 s s t s s t s . t . . . G s . . . . T s . . . t . s s s s t t s t s t . ",
". f ` C s 0 s t s t t f . s . . . L t . . . @ L s . . . s . s t s s 0 t 0 0 0 0 . ",
". s V > 0 s s s t t s s . f . . . L s . . . . G t . . . s . s 0 0 7 t 0 0 t 7 0 . ",
". 0 s > s 7 7 7 t 7 0 t . t . . . L 0 . . . . L t . . . 7 . 0 7 2 t t 2 t _ C 0 . ",
". 7 n C F V C C V 2 0 7 . 0 . @ . L s . . . . L 2 . . @ 0 . t 0 s 7 > s 7 V = 7 . ",
"@ 7 n s t s s t s . 7 7 . t . . @ G 7 . . . . G t . . . t . 0 7 2 0 s 7 0 0 0 t . ",
". 0 n 7 0 0 7 0 7 . 0 0 . 0 . . . G 0 . @ . . T 7 . . . 7 . t 0 t 0 7 7 t 7 t 7 . ",
". 0 c 0 t 2 t 0 t . 0 7 . 7 7 0 0 7 0 t 2 7 s 2 t 7 0 0 0 @ 0 7 7 t 7 t 7 0 0 0 . ",
"@ 0 n 0 7 t G 0 7 . 7 t . . . . . . . . . . . . . . . . @ . 0 0 0 0 0 7 0 7 t 0 . ",
". 7 c @ 0 . ~ = 7 @ 2 0 0 0 0 0 0 0 0 0 0 0 0 0 7 0 0 0 0 0 0 0 0 0 7 t t 2 0 7 . ",
". 0 c = 0 . F 2 7 @ 7 0 0 0 0 0 0 0 0 0 0 0 0 0 0 0 0 0 0 0 0 0 7 0 7 0 2 t 0 t . ",
". 0 f 0 2 . t > 7 @ 7 0 0 0 0 0 0 0 0 0 0 0 0 0 0 0 0 0 0 0 0 0 0 s 0 7 t W n 7 . ",
". 0 k 0 2 = 2 = 2 . 7 0 t 0 0 0 0 0 0 0 0 0 0 0 0 0 0 0 0 0 0 0 0 2 7 0 0 n 7 7 . ",
". t k 7 2 7 > 2 2 . 2 0 0 0 0 0 0 0 0 0 0 0 0 0 0 0 0 0 0 0 0 0 t 0 0 s 2 7 2 t . ",
". 2 k 7 7 2 = 7 2 . 2 7 0 0 0 0 0 0 0 0 0 0 0 0 0 0 0 0 0 0 0 0 7 0 0 2 0 t t 7 . ",
". 7 c 0 0 0 2 0 2 . 2 0 0 0 0 0 0 0 0 0 0 0 0 0 0 0 0 0 0 0 0 0 t 7 0 t s 2 2 7 . ",
". 2 k 2 0 t 7 2 2 . 7 0 0 0 0 0 0 0 0 0 0 0 0 0 0 0 0 0 0 0 0 0 2 > 7 > > 2 2 > . ",
". 2 > . . . . @ . $ = 2 7 7 0 0 0 0 0 0 0 7 7 7 2 2 2 2 2 2 2 2 2 2 > 2 7 > 2 2 . ",
". 2 2 7 2 2 > > > 2 2 7 2 2 2 > 2 2 2 7 7 2 2 2 2 2 2 2 2 2 2 2 2 2 7 7 > 0 > > . ",
"$ 2 > = > 7 7 2 2 2 2 2 2 2 2 7 > 2 2 2 2 2 > 2 2 2 2 2 2 2 2 2 > 7 2 = 7 W c 7 . ",
". 7 W k 7 > > 7 2 2 > > 2 2 2 2 2 2 2 2 2 2 2 2 2 2 2 2 2 2 2 2 7 > 2 2 > k = > . ",
"@ = n > > 7 2 > 7 2 2 2 2 2 > > 2 2 2 2 2 2 2 2 2 2 2 2 2 2 2 2 > > 2 0 2 2 > 0 . ",
". > > > 2 2 2 2 > 2 2 2 2 2 7 7 2 2 2 2 2 2 2 > 2 2 2 2 2 2 2 2 2 7 2 = 2 2 7 * . ",
". 7 > 7 2 2 2 7 2 2 2 2 2 2 > 2 2 2 2 2 2 2 2 2 2 2 2 2 2 2 2 2 2 2 > 2 0 = 7 7 . ",
". > 0 > 2 7 = 2 2 2 2 2 2 2 2 2 > 2 2 2 2 2 2 2 2 2 2 2 2 2 2 2 2 7 2 2 2 2 2 2 . ",
". 2 7 2 7 2 2 7 2 2 2 2 7 2 7 > 2 2 2 2 2 2 2 2 2 2 7 2 > 2 > 2 2 > 2 2 2 0 2 2 . ",
". 2 > > > > 2 > 2 > > > 2 > 2 2 > 2 2 2 > 2 2 2 2 > 2 2 > 7 2 7 2 7 2 2 > > > > . ",
". > 2 0 2 2 7 2 7 2 2 7 2 7 2 7 2 2 2 2 2 2 2 2 2 2 7 2 2 2 7 = 2 > = 7 7 2 7 7 . ",
"$ > 7 > = 2 7 > 2 > 2 0 = 2 > > 2 2 > 2 2 2 2 > 2 2 2 > 2 > 7 > 2 2 7 2 > 2 = 2 . ",
". 2 G k 0 2 2 2 7 2 2 > . @ . . . . . . . . . . . . . . @ . > 2 7 2 > > 7 L f 2 . ",
"@ > f = > 2 2 > > 2 2 2 @ > > 7 2 2 > 2 2 2 > 2 2 7 2 2 = @ 2 2 2 2 7 2 = s = > . ",
". > 7 > 2 7 7 2 7 2 2 2 . 2 > 2 2 2 2 2 2 2 2 2 = 2 > 7 2 . 2 2 2 > > 7 2 2 = 7 . ",
". 0 = 0 2 > 2 2 > 2 2 > . 0 > 2 2 2 2 2 2 2 2 2 7 7 > 7 2 . > 7 > 0 2 > 7 > 0 = . ",
". > > 7 2 > 7 2 2 2 2 > . 2 7 > 2 2 2 2 2 2 2 2 > 7 > 2 2 . 7 > 2 > 2 7 > 7 > 2 . ",
"$ 2 > 7 2 2 2 > 2 > > 7 $ 2 2 7 2 2 2 2 2 2 2 2 2 7 2 2 2 . 2 2 2 2 > 7 2 > 2 > . ",
". > 2 2 > 2 2 7 2 7 2 > . > > 7 2 2 2 2 2 2 2 2 2 2 2 2 7 . 2 2 0 2 > 2 2 2 7 7 . ",
". = 0 > 2 0 2 = > 2 > 7 . 0 2 > > 2 2 > > 2 2 2 2 > > > 7 . 2 > = 7 > 0 2 > 2 > . ",
". 0 F t 2 > 2 0 L s > 2 . > 2 2 2 2 2 2 2 2 2 2 7 2 2 2 7 . 2 7 L s 7 = 7 T 0 7 . ",
". > f > 2 2 2 > s > > 7 . > 7 > 2 2 2 2 2 2 2 2 > 2 7 > > . > 2 f . > 0 > s . 7 . ",
"@ = 2 > > 2 > 7 > > 7 > @ = 2 2 2 2 2 2 2 2 2 2 2 2 2 2 > $ > 2 = 7 > 7 > > 7 > . ",
". @ . @ . @ . . . . . . . @ . . . . . . . . . . . . . @ . . @ . @ . @ . . . . . . "
};
